<?xml version="1.0" standalone="no"?>
<!DOCTYPE svg PUBLIC "-//W3C//DTD SVG 1.1//EN" "http://www.w3.org/Graphics/SVG/1.1/DTD/svg11.dtd" >
<svg xmlns="http://www.w3.org/2000/svg" xmlns:xlink="http://www.w3.org/1999/xlink" version="1.1">
<metadata></metadata>
<defs>
<font id="aartinormal" horiz-adv-x="0" >
<font-face units-per-em="2048" ascent="1638" descent="-410" />
<missing-glyph horiz-adv-x="512" />
<glyph />
<glyph horiz-adv-x="682" />
<glyph unicode=" "  horiz-adv-x="512" />
<glyph unicode="&#x09;" horiz-adv-x="512" />
<glyph unicode="&#xa0;" horiz-adv-x="512" />
<glyph unicode="!" horiz-adv-x="471" d="M168 82q0 -33 22.5 -54.5t53.5 -21.5q35 4 56.5 25.5t21.5 50.5q-8 88 -89 88q-31 -2 -48 -28.5t-17 -59.5zM207 451q0 -41 29 -95q31 -53 49 -53q16 0 14 25l82 751q-133 -31 -133 -65z" />
<glyph unicode="&#x22;" horiz-adv-x="352" d="M41 969q25 0 25 -209h47q-1 209 26 209v161h-98v-161zM205 967q27 0 26 -207h43q0 209 29 209v157h-98v-159z" />
<glyph unicode="#" horiz-adv-x="802" d="M55 184q29 -55 183 -139q106 -57 198 -57q63 0 119.5 16t96.5 49t63.5 79.5t23.5 105.5q0 88 -139 221q-14 12 -76.5 64t-179.5 151q-137 113 -137 157q0 35 27.5 56.5t62.5 21.5h381v78h-375q-82 0 -133 -40t-51 -122q0 -39 31.5 -90t103.5 -110l252 -209 q70 -57 101.5 -107.5t31.5 -85.5q0 -88 -74 -131q-51 -33 -135 -33q-88 0 -205 93q-96 76 -100 100z" />
<glyph unicode="$" horiz-adv-x="1036" d="M-131 -401q0 -63 27.5 -123t76.5 -109q99 -100 228 -100q66 0 118 16.5t107 46.5q123 76 123 187q0 86 -48 152.5t-143 119.5q72 16 109 39q66 41 65 90q0 41 -22 76h-41q0 -70 -96 -105q-66 -27 -156 -26h-98q-106 0 -178 -78q-39 -43 -55.5 -87t-16.5 -99zM-45 -475 q0 86 59 164q61 70 150 69h131q43 0 78 -19.5t58.5 -50t36.5 -71.5t13 -84q0 -96 -106 -160q-92 -49 -195 -49q-96 0 -160 51q-35 29 -50 65t-15 85zM39 928h776q0 -106 -110 -146q-43 -16 -91.5 -22t-109.5 -6h-123q-131 0 -223 -101q-90 -102 -90 -233q0 -166 124.5 -291 t290.5 -125q80 0 149.5 20.5t137.5 59.5q150 92 150 233q0 203 -236 340q88 18 143 54q72 53 72 108q0 53 -37 109h219l4 92h-1042zM152 358q0 113 73 203q78 90 187 90h163q104 0 170 -92q59 -84 60 -190q0 -123 -129 -199q-57 -33 -116.5 -47t-127.5 -14q-123 0 -199 63 q-43 37 -62 81t-19 105z" />
<glyph unicode="%" horiz-adv-x="546" d="M72 928h577l4 92h-577zM74 696q0 -78 125 -153q112 -68 198 -68q219 0 219 88q0 47 -45 105q-53 -78 -204 -78q-172 0 -258 121q-35 0 -35 -15z" />
<glyph unicode="&#x26;" horiz-adv-x="860" d="M59 287q0 -76 111 -133q88 -45 182 -45q45 0 83 3t73 7l20 -39l47 -90q51 -98 64 -99q57 0 57 37q-6 39 -116 199q109 31 180 84q100 74 100 158q0 72 -61 155q-59 84 -129 84q-49 0 -142 -30q-98 -29 -145 -29q-76 0 -76 55q0 49 58 82q57 37 110 37q49 0 152 -18 q104 -18 155 -19q27 0 65 9.5t79 23.5t80.5 32.5t70.5 36.5l6 91q-12 -12 -41.5 -25.5t-69.5 -25t-86 -17.5t-93 -6q-68 0 -175 18q-96 20 -153 21q-43 0 -78 -11.5t-80 -35.5q-94 -55 -94 -121q0 -39 21.5 -77t60.5 -75q78 -72 160 -71l118 22q80 23 117 23q35 0 60.5 -28 t25.5 -60q0 -76 -92 -134q-68 -43 -160 -67q-145 207 -295 207q-63 -6 -110 -35q-59 -41 -60 -94zM72 928h1009l4 92h-1009zM184 246q11 78 107 78q90 0 182 -134q-84 -20 -121 -20q-41 0 -100 16q-68 25 -68 60z" />
<glyph unicode="'" horiz-adv-x="503" d="M242 1198q10 -96 114 -96q-20 -104 -100 -131l25 -43q147 92 147 260q0 37 -22 65q-20 33 -56 33q-41 -6 -71 -24q-37 -29 -37 -64z" />
<glyph unicode="(" horiz-adv-x="555" d="M78 494q0 227 74 430q55 158 143 290q68 106 76 107h104q-8 0 -76 -102q-88 -135 -141 -287q-80 -231 -80 -438q0 -225 76 -422q29 -74 63.5 -148t79.5 -145q70 -111 78 -111h-104q-8 0 -76 113q-84 145 -141 297q-76 201 -76 416z" />
<glyph unicode=")" horiz-adv-x="555" d="M94 -332q8 0 76 109q92 143 143 293q80 227 80 424q0 240 -76 436q-27 72 -62.5 144.5t-82.5 144.5q-68 102 -78 102h107q10 0 75 -104q45 -70 80 -143t64 -148q74 -203 74 -432q0 -215 -76 -416q-53 -145 -142 -295q-68 -115 -75 -115h-107z" />
<glyph unicode="*" horiz-adv-x="1710" d="M70 82q0 -90 77 -139q39 -25 75 -33t87 -8q86 0 168 29.5t152 84.5q154 119 168 297v72q-4 16 -8.5 30.5t-14.5 26.5q37 4 63.5 16.5t65.5 55.5q20 35 64.5 65.5t99.5 53t116.5 35t121.5 12.5q84 0 151.5 -61.5t67.5 -149.5q0 -172 -127 -305q-63 -68 -136 -98.5 t-161 -30.5q-168 0 -168 137q0 27 5 72t21.5 91t46 87t78.5 63q45 20 80 24.5t64 -20.5q55 -49 61 -108q0 -25 25 -25q37 0 37 45q0 51 -20.5 96.5t-57.5 84.5q-41 41 -96.5 40t-102.5 -12q-55 -12 -85 -46l-60 -68q-18 -23 -33.5 -60t-25 -77t-14.5 -76.5t-5 -59.5 q0 -117 78 -207q75 -86 192 -86q100 0 184.5 40t149.5 114q133 152 133 354q0 141 -94 242q-92 102 -229 102q-57 0 -121 -8t-117 -35q-53 -20 -88 -58t-66.5 -75t-72.5 -60.5t-107 -15.5q-66 16 -117 22.5t-106 6.5q158 45 254 105q125 80 135 171t-98 177q-90 59 -195 59 q-78 0 -143.5 -13.5t-126.5 -39.5q-154 -72 -154 -199l6 -51q186 209 490 209q139 0 139 -76q0 -98 -229 -203q-131 -61 -303 -108l28 -121q111 47 211 47q72 0 121 -31q66 -41 66 -100l-6 -72q-20 -156 -140 -243q-61 -47 -125.5 -65.5t-150.5 -18.5q-127 0 -127 75z M848 1194q0 43 39 88h110q-6 -6 -14 -33q-12 -35 -12 -75q0 -111 82 -175q76 -55 190 -55q106 0 198.5 67.5t92.5 172.5q0 49 -25 96q43 -6 93 -49q51 -43 57 -88q0 -123 -135 -199q-113 -63 -250 -63q-133 0 -275 86q-152 96 -151 227zM1157 1180q0 37 26.5 62.5t61.5 25.5 q41 0 68 -21q14 -10 22 -23.5t8 -33.5q0 -98 -98 -98q-37 0 -62.5 25.5t-25.5 62.5z" />
<glyph unicode="+" horiz-adv-x="1306" d="M72 928h727q12 -25 12 -35q0 -37 -43 -52.5t-125 -15.5l-266 9q-55 0 -115 -39q-63 -45 -63 -99q0 -78 129 -133q-109 -51 -166 -127q-66 -84 -66 -180q0 -141 125 -242q111 -86 258 -110q8 6 51 71q-121 0 -223 54q-129 70 -129 186q0 135 139 225q119 78 265 78h163 q68 0 68 -57q-6 -41 -65 -70q-55 -27 -105 -26h-113q-66 0 -65 -48v-112q0 -80 72 -127q63 -41 147 -41q182 0 338 162l-4 -45q0 -55 53 -105q70 -63 141 -63q-68 68 -61 127l61 815h197l4 92h-1337zM311 655q6 68 86 68h297q59 0 117 33q63 39 63 94q1 45 -26 78h231 l-43 -508q0 -113 -112 -201q-119 -90 -250 -90q-55 0 -99 25q-49 33 -49 82v36l76 -12q57 0 102.5 11.5t92.5 37.5q88 49 88 101q0 45 -18.5 81.5t-51.5 63.5t-75 41t-87 14q-209 0 -266 -32q-76 37 -76 77z" />
<glyph unicode="," horiz-adv-x="503" d="M154 -135l14 -35q49 0 115 98q66 100 65 154q0 41 -26 74q-23 35 -62 34q-41 0 -69.5 -28.5t-28.5 -69.5q6 -70 94 -88q-29 -92 -102 -139z" />
<glyph unicode="-" d="M-512 1406q2 38 14.5 78t32 74.5t41.5 57.5q51 51 111.5 83t129 34t148.5 -28t170 -99q6 -23 27.5 -54.5t21.5 -72.5q0 -29 -20 -62l-133 78q31 27 28.5 60.5t-51.5 70.5q-186 98 -338 -53q-14 -14 -26.5 -38t-20.5 -52.5t-12 -60t0 -58.5q6 -49 41 -103.5t82 -105.5 t98 -96t90 -76l-88 -4q-84 70 -139 122t-92 94t-59.5 77t-41.5 69q-16 27 -14 65z" />
<glyph unicode="." horiz-adv-x="458" d="M281 -2v139h143v-139h-143z" />
<glyph unicode="/" d="M-733 -276l63 -76l348 256l287 -254l45 53l-313 281h-78z" />
<glyph unicode="0" horiz-adv-x="997" d="M123 389q0 23 5 59.5t14.5 76.5t24.5 77t34 60q31 35 60.5 68.5t84.5 45.5q47 10 102.5 11t96.5 -39q37 -39 57.5 -84.5t20.5 -96.5q0 -45 -37 -45q-25 0 -25 25q-6 59 -61 108q-29 25 -64 21t-80 -25q-49 -23 -78.5 -63.5t-46 -86.5t-21.5 -91t-5 -72q0 -137 168 -137 q88 0 160.5 30.5t136.5 98.5q127 133 127 305q0 88 -67.5 149.5t-151.5 61.5q-117 0 -224.5 -44t-165.5 -136l-45 92q18 29 30.5 49t29 35.5t38 30t58.5 32.5q53 27 116.5 35t121.5 8q137 0 229 -102q94 -100 94 -242q0 -203 -133 -354q-66 -74 -150 -114t-184 -40 q-117 0 -192 86q-78 90 -78 207z" />
<glyph unicode="1" horiz-adv-x="1130" d="M295 440q2 -27 100 -88l164 -102q135 -90 135 -168q0 -49 -55 -82l104 -55q33 2 49.5 41t16.5 75q0 66 -141 170l-123 93q-115 72 -115 96q0 35 94 65l195 93q203 98 203 200q0 100 -80 172q-76 70 -183 70q-106 0 -204 -49q-117 -61 -117 -152q0 -66 82 -123 q86 -55 201 -55l-226 -113q-100 -39 -100 -88zM451 778q0 72 108 119q49 25 87 33t85 8q51 0 94 -31q43 -35 43 -78q0 -80 -196 -167q-59 0 -135 28q-86 39 -86 88z" />
<glyph unicode="2" horiz-adv-x="1130" d="M176 389q0 -39 37 -63.5t82 -24.5q53 0 113.5 13.5t132.5 39.5q160 -115 278 -366l74 45q-129 219 -303 338q178 51 291 139q147 117 147 258q0 53 -20.5 112.5t-55.5 100.5q-18 20 -49 39.5t-66.5 34t-70.5 22.5t-59 8q-68 0 -138.5 -9t-130.5 -44q-33 -20 -64.5 -42.5 t-56 -47t-40 -53.5t-15.5 -62q0 -70 51.5 -114.5t118.5 -44.5q59 0 66 32q-121 12 -121 107q0 47 44 83t89 70.5t97 43t100 8.5q12 0 33.5 -5.5t46 -12.5t45 -15t30.5 -14q29 -23 45.5 -65t16.5 -81q0 -272 -424 -385q-117 43 -164 43q-160 0 -160 -88z" />
<glyph unicode="3" horiz-adv-x="1122" d="M178 303q0 -139 133 -219q113 -70 260 -70h33q29 -55 68 -112.5t84 -102.5q39 -43 84 -43q23 0 44 9.5t34 29.5q8 10 8 25q0 16 -13 28l-20 31q-6 16 -22.5 21.5t-30.5 5.5q-8 0 -17.5 -3t-25.5 -3h-15q-27 16 -40 27.5t-20 24.5t-14.5 30.5t-21.5 44.5q76 18 135 57 q125 80 125 213q0 166 -180 266q201 98 201 236q0 80 -84 151q-82 70 -168 70h-113q-66 0 -184 -55q-127 -59 -127 -115q2 -33 63 -84q27 47 68 83t90 60.5t103.5 36.5t109.5 12q127 0 127 -129q0 -152 -147 -221q-63 33 -154 33q-147 0 -148 -88q8 -76 107 -76q86 0 215 62 q127 -74 127 -191q0 -80 -53 -139q-63 -63 -160 -82q-23 45 -47.5 90t-55 84t-69.5 68.5t-88 46.5q-23 6 -43 6q-33 0 -60 -12q-10 -4 -19 -8.5t-17 -10.5q-10 -8 -14.5 -11t-12.5 -11q-27 -31 -33 -66h-2zM307 256q2 6 4 15.5t6.5 19.5t9.5 16t17 10q8 6 13 7.5t16 3.5 l33 2q16 -2 24 -6.5t14 -6.5q27 -20 43.5 -42.5t27.5 -47t19.5 -52.5t18.5 -56h-2q-90 0 -170 49q-55 35 -74 88z" />
<glyph unicode="4" horiz-adv-x="1122" d="M164 944q221 -106 346 -289q-266 -223 -266 -430q0 -82 80 -151q78 -70 159 -70q90 0 162 92q70 90 70 191q-1 170 -105 317q258 217 480 299l-97 115q-119 -45 -438 -320q-139 197 -317 320zM336 205q0 86 58 179t171 187q78 -109 78 -213q0 -92 -53 -182 q-59 -98 -148 -98q-53 0 -80 37q-27 39 -26 90z" />
<glyph unicode="5" horiz-adv-x="1130" d="M174 788q0 -147 135 -270q137 -123 279 -123q96 0 186 31q92 -111 134 -178.5t42 -104.5q0 -70 -69.5 -108.5t-141.5 -38.5l37 -76q6 -18 68 -18q68 6 119 63q51 53 51 117q0 90 -82 203l-117 157q240 117 240 244q-6 68 -66 137q-66 74 -125 74q-76 0 -159 -59 q-82 -57 -82 -131q0 -82 96 -197q-121 -43 -182 -43q-100 0 -179 68q-72 66 -71 172q0 182 153 274l-137 37q-129 -115 -129 -230zM707 655q0 57 63 109q68 49 125 49q76 0 76 -86q0 -113 -209 -201q-55 49 -55 129z" />
<glyph unicode="6" horiz-adv-x="1130" d="M221 451q0 -125 105 -193q88 -57 219 -57q150 0 258 61q74 -111 74 -201q0 -23 -12.5 -41t-31 -33.5t-41 -23.5t-40.5 -8l92 -92q57 8 90 45q37 37 37 92q0 117 -137 279q158 90 157 172q0 129 -119 129q-53 0 -100 -41q-39 -39 -39 -99q0 -41 12 -73q-72 -74 -292 -74 q-49 0 -99 24q-59 35 -59 72q0 90 172 174q150 76 244 76q-12 25 -56 74h-110q-59 0 -135 16q-94 27 -95 70q0 78 144 114q45 10 94 16.5t104 6.5q57 0 93 -6l-54 100h-121q-119 0 -217 -37q-137 -51 -137 -143q6 -66 66.5 -114t189.5 -70q-111 -31 -174 -78 q-82 -63 -82 -137z" />
<glyph unicode="7" horiz-adv-x="1130" d="M174 778q0 -289 94 -497q125 -277 381 -277q188 0 309 158q106 143 107 340q0 139 -86 284q-98 162 -227 162q-43 0 -80 -16.5t-63.5 -45t-42 -67.5t-15.5 -82q0 -47 27.5 -95t78.5 -97q104 -98 197 -99q82 0 119 95q0 -88 -22.5 -160t-65.5 -135q-98 -137 -236 -137 q-227 0 -338 266q-86 203 -86 454v185l-51 -33v-203zM655 707q0 66 46.5 111.5t111.5 45.5q64 0 117 -129q43 -104 43 -223l-25 74q-37 -68 -104 -68q-70 0 -133 57q-55 57 -56 132z" />
<glyph unicode="8" horiz-adv-x="1122" d="M188 307q0 -129 121 -221q106 -82 244 -82q113 0 205 41t178 121l-57 113q-174 -170 -398 -170q-209 0 -209 157q0 179 299 398q100 72 211 137t234 123l-55 94q-272 -131 -472 -283q-301 -233 -301 -428z" />
<glyph unicode="9" horiz-adv-x="1130" d="M262 758q0 -125 152 -242l276 -215q123 -102 123 -127q0 -80 -106 -104l94 -84q51 0 89 33.5t38 82.5q0 78 -133 181l-265 204q-176 104 -176 250q0 92 102.5 151.5t198.5 59.5q86 0 86 -67q0 -72 -88 -131q-82 -57 -161 -58q-59 0 -107 35v-8l59 -60q63 -61 119 -61 q49 0 93 13.5t79 35.5q80 55 80 152q0 94 -80 162q-72 59 -172 59q-51 0 -104 -22.5t-101 -57.5q-96 -78 -96 -182z" />
<glyph unicode=":" horiz-adv-x="460" d="M135 227q8 -96 94 -96q35 0 59.5 29.5t24.5 66.5q-2 35 -27.5 59.5t-56.5 24.5q-35 0 -64.5 -24.5t-29.5 -59.5zM174 639q6 -41 29 -68q26 -26 65 -26q43 6 68.5 31.5t25.5 62.5q0 35 -29.5 60.5t-64.5 25.5t-64.5 -24.5t-29.5 -61.5z" />
<glyph unicode=";" horiz-adv-x="520" d="M178 92q0 -76 105 -88q-31 -104 -82 -129l14 -35q49 6 98 99q51 90 52 143q0 37 -26 67.5t-63 30.5q-43 -6 -69 -26q-29 -29 -29 -62zM209 553q6 -41 29 -64q30 -24 69 -24q98 0 99 98q0 37 -30 62.5t-69 25.5q-41 0 -69.5 -28.5t-28.5 -69.5z" />
<glyph unicode="&#x3c;" horiz-adv-x="782" d="M72 928h876l4 92h-876zM78 717q12 -96 108 -96h113q-47 -66 -47 -150q0 -74 29.5 -144.5t87.5 -148.5q121 -164 258 -164q47 6 47 47q-2 27 -8 35q-25 -10 -60 -10q-109 0 -192 115q-68 100 -68 219q0 41 14.5 79t39 67.5t59.5 47t76 17.5l55 -6l57 -4h92q51 0 97.5 10 t93.5 28l8 125q-57 -51 -199 -51h-92l-102 15l-25 4q-102 0 -153 -70q0 51 -37 51h-62q-100 0 -164 39q-27 -25 -26 -55z" />
<glyph unicode="=" horiz-adv-x="1136" d="M72 928h776q0 -113 -139 -113q-47 0 -94.5 4t-96.5 8q-47 6 -105.5 12.5t-103.5 6.5q-51 -6 -90 -55q-39 -45 -39 -95q0 -78 154 -133q-104 -49 -166 -123q-70 -82 -70 -174q0 -139 146 -262q109 -96 268 -151l25 43q-344 137 -344 278q0 176 167 270q135 74 328 74 q231 0 232 -94q-66 12 -99 12q-119 -14 -211 -61q-121 -66 -121 -160q0 -92 101 -156q90 -53 190 -53q229 0 332 178q-18 53 -53 76q-147 -162 -361 -162q-49 0 -88 13q-59 23 -59 57q0 86 143 131q92 33 209 33q68 6 68 67q0 113 -127 168q-98 43 -228 43q-172 0 -235 -32 q-86 33 -86 98q0 49 55 67l201 -12q66 -6 117 -8t82 -2q170 0 170 108q0 80 -19 99h338l4 92h-1167z" />
<glyph unicode="&#x3e;" horiz-adv-x="1144" d="M72 928h811l-9 -111q-102 -84 -233 -84h-184q-61 0 -92 -47l-25 47l-109 10q-92 8 -147 45q8 -90 47 -129q92 -29 162 -28q-78 -96 -78 -191q0 -66 24.5 -134t69.5 -144q104 -168 219 -168q55 0 93 43q-135 12 -213 108q-45 53 -61.5 106.5t-16.5 127.5q0 84 53 168 q55 84 135 84h92q141 0 256 65l-37 -481q0 -145 185 -221q-31 33 -42 64.5t-11 74.5l12 174q0 66 26.5 121t79.5 111q98 100 228 100q70 0 112 -47q47 -47 47 -111q0 -86 -108 -164q-106 -76 -195 -75q-72 0 -96 43q-4 18 -14 18q-8 -6 -9 -16q0 -104 70 -150 q47 -20 100 -20q57 0 110.5 23.5t102.5 66.5q100 92 101 203q0 113 -70 213q-80 111 -182 110q-86 0 -157.5 -33.5t-127.5 -95.5l25 324h653l4 92h-1597z" />
<glyph unicode="?" horiz-adv-x="1107" d="M184 1079l101 -78q88 229 293 320q188 84 256 -57q73 -167 -109 -486q-61 -106 -133 -210.5t-164 -209.5l90 -63q197 238 309 453q182 332 99 514q-53 115 -203 151q-129 31 -254 -27q-104 -47 -171 -121.5t-114 -185.5zM408 135q0 -37 25.5 -62.5t62.5 -25.5q98 0 98 98 q0 20 -8 34t-23 24q-27 20 -67 20q-35 0 -61.5 -25.5t-26.5 -62.5z" />
<glyph unicode="@" horiz-adv-x="1060" d="M72 928h719l-23 -299q-111 186 -291 186q-145 0 -254 -84q-119 -92 -119 -229q0 -131 80 -231.5t211 -100.5q221 0 355 164l-11 -129q6 -57 54 -123q55 -76 104 -76q4 0 14 10l-18 33q-20 27 -21 125q0 188 97 346q117 180 293 180v113q-104 0 -191.5 -48t-169.5 -147 l23 310h354l4 92h-1206zM176 420q0 117 131 205q115 78 242 77q119 0 168 -86q6 -8 18 -20q4 -4 8 -6q14 4 29 18l-14 -76q-18 -109 -148 -188q-63 -39 -118.5 -55.5t-116.5 -16.5q-92 0 -146 35q-53 47 -53 113z" />
<glyph unicode="A" horiz-adv-x="1206" d="M72 82q0 145 235 231q72 25 163 43.5t202 28.5q0 59 -66 100q-49 31 -121 31q-100 0 -211 -47l-28 121q172 47 303 108q229 104 229 203q0 76 -139 76q-303 0 -489 -209l-7 51q0 127 154 199q61 27 126.5 40t143.5 13q104 0 195 -59q98 -72 98 -172q0 -90 -135 -176 q-96 -59 -254 -105q137 0 215 -39q102 -51 113 -135l151 -12l43 555h-82l-41 92h445l-4 -92h-185l-51 -723q0 -86 9.5 -130t39.5 -69q-66 6 -127 62q-55 55 -55 127v96l-78 22h-65q-14 -178 -168 -297q-70 -55 -152 -84.5t-168 -29.5q-51 0 -87 8t-74 33q-78 49 -78 139z M121 61q0 -75 124 -75h3q86 0 150.5 18.5t125.5 65.5q119 88 140 243q-191 0 -369 -80q-174 -76 -174 -172z" />
<glyph unicode="B" horiz-adv-x="882" d="M184 664q72 -66 181 -66q35 2 67.5 17.5t57 38t40 52t15.5 62.5q0 68 -33 100q0 -37 -17.5 -69.5t-46 -56t-66.5 -37t-79 -13.5q-39 0 -67.5 23.5t-28.5 62.5q0 82 94 140q96 59 176 59q129 0 129 -137q0 -174 -31 -291q-145 -37 -260 -98q-180 -98 -180 -205 q0 -104 57.5 -173t161.5 -69q133 0 238 172q82 127 106 299q18 6 62.5 13.5t97.5 14.5t105.5 14t87.5 13l6 103l-350 -45q12 98 12 190q0 78 -98 180q-96 102 -175 103q-113 0 -215 -53q-118 -62 -118 -166q0 -106 71 -178zM211 174q0 92 135 172q98 61 221 92 q-96 -348 -264 -348q-92 0 -92 84zM719 1020l41 -92h301l8 92h-350z" />
<glyph unicode="C" horiz-adv-x="1157" d="M72 928h67l-4 -35q0 -164 215 -264q54 -15 54 -32q0 -2 -1 -3q-2 -14 -63 -35q-233 -90 -234 -231q0 -137 134 -236q125 -94 262 -94q123 0 223 35t193 102q194 151 194 375q0 201 -96 268l14 150h234l4 92h-1192zM211 256q0 82 102 156q99 75 206 75h3q37 0 37 56 q0 63 -80 88q-82 18 -135 65q-61 55 -61 133q0 51 53 99h551l-13 -113q-82 -25 -132 -83t-50 -138q0 -211 209 -305q-217 -180 -450 -180q-240 0 -240 147zM784 522q0 76 37 132.5t111 56.5q55 0 87 -41t32 -97q0 -125 -107 -251q-160 63 -160 200z" />
<glyph unicode="D" horiz-adv-x="1052" d="M68 399q0 -139 170 -272q160 -123 307 -123q82 0 144.5 16.5t117.5 47.5q133 78 133 219q0 80 -61 176q-74 106 -140 106q-27 -4 -72.5 -12t-82.5 -16q-102 -23 -162 -23q-96 0 -96 76q0 27 13 52.5t33.5 45t47 30.5t53.5 11l133 -8l133 -4q41 0 73 11t65 34 q68 49 67 121l-6 41h225l4 92h-1089l-4 -92h815q0 -102 -232 -103l-129 4l-127 7q-37 0 -65.5 -12t-52.5 -36q-51 -45 -52 -112q0 -94 74 -176q78 -84 168 -84q39 0 143 26q49 14 84 18.5t60 4.5q47 -6 76.5 -29.5t29.5 -66.5q0 -131 -123 -199q-88 -51 -239 -51 q-117 0 -213 59q-109 72 -109 180q0 39 21 74q8 14 8 29q0 16 -45 16q-31 -2 -64.5 -27.5t-33.5 -50.5z" />
<glyph unicode="E" horiz-adv-x="886" d="M70 465q68 -111 82 -111h61q141 0 307 62q43 -25 114 -43.5t151.5 -32.5t162 -23.5t142.5 -15.5l8 61q-49 4 -121 9.5t-146.5 14.5t-141 24.5t-107.5 40.5q119 57 192 137q90 96 90 200q0 129 -98 231.5t-225 102.5q-117 0 -236 -92q-119 -88 -119 -201q0 -178 213 -329 q-160 -43 -227 -43zM301 758q0 109 100 190.5t211 81.5q33 0 64 -14.5t54.5 -38t36.5 -54t13 -63.5q0 -113 -108 -211q-88 -82 -213 -123q-158 96 -158 232z" />
<glyph unicode="F" horiz-adv-x="1056" d="M72 928h118q-75 -156 -75 -270q0 -75 29.5 -140t86.5 -127q117 -119 258 -119q150 0 252 88l-12 -176q0 -61 86 -116q55 -37 123 -56q-74 68 -74 162l10 215q0 111 99 207q102 96 219 96v111q-180 0 -299 -144l22 269h297l5 92h-1141zM250 573q0 175 125 355h407 l-32 -418q-127 -145 -322 -145q-76 0 -129 65q-49 63 -49 143z" />
<glyph unicode="G" horiz-adv-x="638" d="M72 928h69v-47q0 -84 111 -164q82 -57 213 -107q-150 -12 -242 -63q-125 -68 -125 -168q0 -59 26 -104.5t73 -81.5q88 -63 204 -64q262 0 361 139l10 156q-43 -100 -170 -160q-61 -29 -117.5 -41t-113.5 -12q-199 0 -199 106q0 100 162 162q117 47 233 47l-47 115 q-86 14 -147 55q-78 49 -78 123q0 47 32.5 78t73.5 31h406l4 92h-735z" />
<glyph unicode="H" horiz-adv-x="952" d="M72 928l4 92h983l-4 -92h-258q47 -72 47 -129q0 -98 -180 -99h-62q-29 4 -49.5 5.5t-36.5 3.5l-149 12q-31 0 -57.5 -21.5t-28.5 -54.5q0 -57 75 -108q16 6 73.5 9t133.5 3q78 0 167 -1t169 -3t141.5 -4t83.5 -2l31 -84q-25 0 -88 1t-145 2t-174 1q-90 0 -171 -2 t-140.5 -8.5t-80.5 -16.5q-76 -41 -111.5 -93t-35.5 -124q0 -123 170 -203q72 -33 138.5 -50t135.5 -17q23 0 49.5 1t67.5 15q-6 -53 -65 -59q-201 0 -388 78q-233 100 -233 276q0 152 233 266q-151 72 -151 184q0 46 49 82q51 37 100 37q25 0 73 -3t120 -11l125 -6 q147 0 147 86q-2 6 -3 15t-7 22h-698z" />
<glyph unicode="I" horiz-adv-x="409" d="M-506 1204q0 59 17.5 115.5t82.5 103.5q59 43 118 58.5t124 15.5q82 0 150.5 -33.5t146.5 -120.5q63 -70 90 -149.5t60 -173.5h227l-4 -92h-197l-53 -764q0 -68 13.5 -109t49.5 -69q-70 0 -139 61q-53 53 -53 137l53 744h-123l-55 92h221q-14 39 -25.5 76t-23.5 70.5 t-29.5 63.5t-42.5 58q-63 66 -121.5 90.5t-134.5 24.5q-43 0 -82.5 -12.5t-80.5 -49.5q-41 -35 -47.5 -75.5t-6.5 -81.5q0 -102 86 -154h-114q-106 45 -107 174z" />
<glyph unicode="J" horiz-adv-x="993" d="M63 276q6 -70 80 -124q78 -53 142 -54q115 0 278 41q133 -137 146 -198q12 -39 28 -39q39 0 74 47q-43 74 -190 196q123 25 202 76q113 74 113 168q-6 49 -29 92q41 -18 70 -26.5t41 -8.5q35 0 62.5 10.5t39.5 16.5l8 121q-55 -68 -231 -68q-72 84 -162 84q-27 0 -65 -6 q-2 0 -101 -18q-57 -12 -88.5 -14.5t-72.5 -2.5q-66 0 -66 56q6 47 45 77.5t82 30.5l106 -6l109 -4q109 0 174 45q68 49 68 135q0 14 -2 25h233l4 92h-1085l-4 -92h802q0 -61 -86 -86q-18 -6 -29 -9.5t-25.5 -4.5t-32 -2t-48.5 -1l-133 4l-133 7q-55 0 -100 -50 q-47 -47 -47 -100q0 -74 67 -147q72 -72 142 -72q53 0 161 25q107 24 162 24h4q78 0 78 -55q0 -160 -326 -221q-186 186 -325 186q-61 0 -100.5 -43t-39.5 -107zM137 256q12 78 96 78q106 0 236 -111q-53 -22 -173 -22h-11q-147 0 -148 55z" />
<glyph unicode="K" horiz-adv-x="1363" d="M20 1020l68 -92h111q-49 -27 -82 -60v-147q182 201 432 207h12q39 0 79 -13.5t70.5 -36t50 -56.5t19.5 -72q0 -70 -15 -142.5t-65 -132.5q-51 -59 -113.5 -76.5t-131.5 -17.5q-37 0 -76 13.5t-73 35t-59.5 51t-37.5 64.5q-96 -66 -96 -94q29 -39 50 -68t45.5 -57.5 t58.5 -60.5t87 -77q25 -23 71 -54.5t107.5 -61t133 -51t145.5 -21.5h80q37 0 71.5 3t70.5 8t79 18q20 8 56 25.5t74 42t72 55t50 67.5q92 27 154 100l8 156q-37 -72 -152 -127q-139 -65 -228 -65h-3q-31 0 -57.5 10t-38.5 16q-51 33 -52 80q0 102 129 199q125 94 234 94 q92 0 127 -66q14 -24 26 -26l27 8v45q-86 141 -252 141q-131 0 -262 -100q-66 -49 -103.5 -119.5t-37.5 -134.5q0 -63 27.5 -98t74.5 -74q96 -78 219 -78l33 13q-51 -25 -95 -41.5t-87 -27.5t-89 -16.5t-102 -7.5h-11q-58 0 -125 18q-73 20 -144.5 53.5t-138 75.5t-117.5 83 q41 -29 79.5 -38t92.5 -9h67q25 0 55.5 9t61.5 23.5t60.5 34t50.5 39.5q53 53 70.5 130t17.5 159q0 66 -35 121t-88 100q-10 8 -18.5 15.5t-18.5 13.5h805l4 92h-1512z" />
<glyph unicode="L" horiz-adv-x="1239" d="M72 928h823q-109 -109 -158 -404q-31 291 -213 291q-195 0 -313 -197q-102 -168 -102 -372q0 -262 241 -262q184 0 342 280q0 -111 57.5 -180.5t143.5 -69.5q117 0 213 121q90 109 90 234q0 88 -51 159q-57 82 -139 82q-115 0 -224 -90q49 246 273 408h286l5 92h-1270z M162 205q0 186 92 327q111 168 281 168q76 0 129 -79q25 -41 38 -78t13 -74q-41 -39 -75 -83t-60 -91q-139 -238 -281 -238q-63 0 -100 43t-37 105zM725 309q121 207 311 207q45 0 76 -44t31 -93q0 -90 -80 -176q-78 -84 -170 -84q-80 0 -124 54t-44 136z" />
<glyph unicode="M" d="M-240 1423q0 -37 25.5 -62.5t62.5 -25.5q98 0 99 99q0 20 -8.5 33.5t-22.5 23.5q-27 20 -68 20q-35 0 -61.5 -25.5t-26.5 -62.5z" />
<glyph unicode="N" horiz-adv-x="933" d="M72 928h196q-149 -216 -149 -413q0 -136 112 -243q113 -104 242 -104q78 0 149.5 27.5t133.5 76.5q133 109 133 260q0 113 -26.5 208.5t-80.5 187.5h254l4 92h-964zM233 440q0 182 177 488h301q75 -105 75 -298v-5q0 -160 -112 -260q-115 -102 -273 -103q-76 0 -122 50 t-46 128z" />
<glyph unicode="O" d="M-1192 1475q0 35 31 63q27 18 67 25q27 0 86 -41l146 -123l360 -256q51 -41 92 -70t74 -43h-80l-129 78l-325 221q-18 -53 -121 -53q-74 0 -137.5 63.5t-63.5 135.5zM-1118 1403q0 -66 86 -66q63 0 110 35l-55 45q-29 35 -96 41q-45 0 -45 -55zM-803 1495q0 31 37 49 q27 14 61 19q82 0 191 -152l238 -235q35 -51 65.5 -87t56.5 -59h-75q-6 6 -30 33t-61.5 69t-91 95t-116.5 112q-23 -16 -54 -22q-59 0 -139 61q-82 61 -82 117zM-709 1434q0 -49 86 -58q16 4 48 25q-43 78 -78 78q-55 0 -56 -45z" />
<glyph unicode="P" horiz-adv-x="1458" d="M72 928h696l-31 -441l-278 -149q127 127 127 297q0 80 -61.5 135t-139.5 55q-215 0 -276 -286q103 153 254 153h2q59 0 103 -37t44 -92q0 -170 -176 -280l-252 -162v-90q0 -37 14 -37q10 0 60 31l561 333l-10 -122q0 -82 53 -149t135 -79q-29 35 -40 68t-11 78l28 421 q71 -77 154 -77h2h105l84 -84q61 -66 61 -158q0 -59 -30.5 -103t-86.5 -44q-31 0 -82 22q55 -127 164 -127q70 6 110 59.5t40 120.5q0 150 -211 330q200 80 200 192q0 30 -10 58.5t-27.5 51t-41 36.5t-50.5 14q-70 -6 -137 -55q-74 -59 -74 -125q6 -59 48 -106 q-162 0 -213 63l20 285h668l4 92h-1495zM1118 645q0 49 56 90q53 39 112 39q47 0 47 -47q0 -43 -71.5 -80t-118.5 -37q-27 2 -25 35z" />
<glyph unicode="Q" horiz-adv-x="714" d="M92 348q0 -100 125 -170q106 -59 219 -59q66 0 135.5 15.5t129 40t105.5 56t66 66.5l9 172q-12 -29 -44 -60.5t-72 -60.5t-83 -52.5t-76 -37.5q-111 -47 -252 -47q-147 0 -147 106q0 102 149 166q123 55 234 56q31 -10 43 -11q-6 43 -47 113q-59 10 -108.5 28.5 t-88.5 41.5q-110 62 -110 157q0 172 229 172q117 0 117 -57q0 -55 -74 -94q-63 -33 -125 -33q-70 0 -107 25q8 -59 57.5 -89t110.5 -30q201 0 201 160q0 94 -76 151q-68 49 -166 49q-113 0 -198 -49q-102 -59 -103 -162q0 -98 105 -178q90 -66 219 -98q-160 -31 -252 -94 q-125 -82 -125 -193z" />
<glyph unicode="R" d="M-668 -246q0 -100 99 -149q76 -41 184 -41q53 0 114.5 6t127.5 20q184 43 184 113q0 47 -88 92l6 -31q-10 -72 -156 -114q-111 -33 -209 -33q-167 0 -167 95q0 69 77 122q63 43 140 57l186 39l-53 54q-74 0 -136.5 -11.5t-134.5 -38.5q-174 -68 -174 -180z" />
<glyph unicode="S" horiz-adv-x="933" d="M12 410q0 74 70 116.5t149 42.5q158 0 285 -145q156 92 234.5 201.5t78.5 244.5q0 70 -43 129q-43 61 -114 62q-106 0 -217 -62q-125 -70 -125 -170q0 -39 29.5 -62.5t66.5 -23.5t73 13.5t63.5 38t45 57.5t17.5 70q0 47 -27 79q18 12 33 17q33 0 55.5 -30t22.5 -66 q0 -109 -74 -177q-76 -63 -189 -63q-86 0 -149 49q-72 59 -72 139q0 109 142 193q59 33 119.5 51.5t123.5 18.5q131 0 217 -99q86 -96 86 -225q0 -150 -100 -287q-76 -104 -211 -182q188 -225 189 -289q0 -41 -37 -47q-27 0 -47 49q-84 186 -158 260q-82 -47 -163 -75.5 t-144 -28.5q-90 0 -160 55t-70 146zM84 358q0 -55 76 -55q147 0 315 94q-62 78 -203 78q-55 0 -125 -29q-63 -27 -63 -88z" />
<glyph unicode="T" horiz-adv-x="1038" d="M72 928h805q-8 -94 -132 -142q-82 -32 -195 -32h-7q-92 0 -169 -21.5t-134 -58.5q-143 -92 -144 -264q0 -172 127 -289q127 -115 299 -115q53 0 108.5 10.5t123.5 28.5q164 53 164 129q0 55 -54 174q-14 -113 -145 -178q-109 -51 -238 -51q-301 0 -301 250q0 125 127 198 q47 29 105.5 46.5t130.5 17.5q186 18 248 37q167 55 167 150q0 77 -26 110h242l4 92h-1102z" />
<glyph unicode="U" d="M-483 -164q0 -70 90 -135.5t162 -65.5q55 0 102 25t47 74q-6 37 -35 76q-35 43 -63 43q-16 -6 -17 -17l7 -18l4 -23q-6 -41 -43 -59.5t-74 -18.5q-35 0 -60.5 28t-25.5 60q0 70 76 103q59 24 127 24h6q147 0 305 -116q172 -127 172 -267l-6 -24l-4 -23l24 -8q57 12 58 66 q0 162 -228 307q-207 129 -383 129q-43 0 -81.5 -10.5t-73.5 -26.5q-86 -43 -86 -123z" />
<glyph unicode="V" horiz-adv-x="1060" d="M72 928h483v-47q0 -76 -88 -76l-215 10q-49 0 -89 -27.5t-40 -70.5q0 -109 184 -197q-84 -25 -135 -71q-59 -59 -59 -121q0 -90 114 -162q100 -57 199 -57q201 0 352 127q0 -90 70 -154q51 -51 125 -72q-61 68 -62 164l54 754h198l4 92h-1091zM186 276q0 74 113 125 q80 41 168 54q37 8 37 26q0 51 -29 86l-80 -10q-53 8 -92 29q-55 31 -55 69q0 57 65 58l41 -6l41 -5h82q55 0 98 31q51 37 52 86q-4 27 -9.5 54.5t-13.5 54.5h227l-40 -580q-115 -158 -416 -158q-53 0 -111 19q-78 25 -78 67z" />
<glyph unicode="W" horiz-adv-x="997" d="M72 928h821q18 -18 25 -37q-8 -76 -252 -76l-142 6l-145 8q-90 0 -166 -79q-74 -78 -74 -166q0 -164 152 -236q-172 -61 -172 -184q0 -88 82 -149.5t168 -61.5q53 0 103 12t91 33q98 51 144 145q96 -160 104 -180q43 -61 70 -61q23 0 100 55q-162 33 -303 354 q102 18 170 58q100 57 100 133q0 29 -10 57.5t-28.5 51t-44 37t-56.5 14.5q-78 0 -156 -48q-86 -55 -86 -122q0 -53 25 -86q-18 -6 -49 -8.5t-70 -2.5h-24h-31h-39q-68 0 -113 25q-55 33 -55 92q0 82 63.5 151.5t145.5 69.5l143 -8h84h101q59 4 83 6q147 25 148 119 q0 35 -37 78h158l4 92h-1028zM190 123q0 78 164 139q138 49 230 49q45 0 45 -55q0 -98 -107 -168q-98 -61 -194 -61q-137 0 -138 96zM651 451q0 53 70 92q33 20 59.5 27.5t59.5 7.5q57 0 57 -46q0 -37 -78 -77q-76 -39 -157 -39z" />
<glyph unicode="X" horiz-adv-x="944" d="M100 399q0 -262 283 -262q80 0 131 6.5t88 16.5q102 -268 170 -269q33 0 64.5 23t31.5 51q-137 14 -204 201q186 94 186 223q0 45 -32 77t-77 32q-74 0 -127 -78q-41 -66 -41 -148q-87 -30 -213 -30h-8q-68 0 -123 22q-65 34 -65 92q0 104 278 222l291 124 q106 -104 213 -104q12 0 33.5 1t43 3t41.5 6t26 8l8 111q-18 -12 -46 -20.5t-56.5 -13.5t-56.5 -8t-44 -3q-88 0 -141 45q75 67 75 131q0 53 -20.5 98t-56.5 84q-80 82 -174 82q-70 0 -128.5 -14t-119.5 -43q-147 -74 -148 -184q0 -72 64 -131q63 -57 166 -58 q-137 -51 -211 -117q-100 -86 -101 -176zM317 840q0 84 113 141q98 49 188 49q47 0 83 -32.5t36 -75.5q0 -102 -137 -158l-217 -90q55 43 55 53q-4 4 -24 12q-96 29 -97 101zM922 928h190l4 92h-194v-92z" />
<glyph unicode="Y" horiz-adv-x="696" d="M72 928h153q-104 -184 -104 -334q0 -141 96 -244q94 -98 236 -98q45 0 97 17.5t104.5 45t99.5 63.5t77 73l9 186q-10 -20 -34 -47t-51.5 -52.5t-54 -48t-43.5 -34.5l-323 395q53 78 98 78h432l4 92h-792zM213 492q0 166 96 305l305 -367q-113 -76 -243 -76 q-31 0 -58.5 10.5t-50 29t-36 43t-13.5 55.5z" />
<glyph unicode="Z" horiz-adv-x="1093" d="M72 928h774q0 -96 -135 -135q-86 -29 -199 -29q-152 0 -283 -100q-131 -98 -131 -244q0 -188 152 -311q143 -115 334 -115q180 0 297 67q149 81 149 244q0 94 -69 172q-70 82 -162 82q-119 0 -207 -63q-94 -74 -94 -189q0 -121 143 -188q-33 -6 -62.5 -8t-56.5 -2 q-76 0 -132 15t-103 46q-106 74 -107 209q0 133 133 207q80 47 232 63q92 10 151.5 20.5t87.5 18.5q143 51 144 141q0 49 -49 99h292l5 92h-1100zM600 256q0 92 82 150q76 49 168 49q43 0 74.5 -27t31.5 -70t-22.5 -78.5t-73.5 -76.5q-92 -74 -174 -74q-39 6 -62.5 48 t-23.5 79z" />
<glyph unicode="[" horiz-adv-x="1077" d="M57 246q0 -47 19.5 -86t56.5 -76q70 -70 166 -70q37 0 66.5 2t80.5 11q117 -309 263 -310q41 0 71.5 13.5t57.5 40.5q51 51 51 127v57q-59 -115 -201 -115q-70 0 -125 60q-47 51 -65 125q154 0 297 90q156 100 155 254q0 111 -67.5 176t-173.5 65q-43 0 -131 -26 q-92 -25 -136 -25q-86 0 -86 55q0 53 39 86t88 33l115 -6l121 -6q45 0 83 7t79 24q100 43 100 108l-12 68h215l4 92h-1112l-4 -92h848q0 -113 -242 -113l-121 14q-27 6 -43 9.5t-26.5 5.5t-24.5 2h-31q-55 -6 -101 -46t-46 -93q0 -86 63 -158q63 -74 146 -74l143 23 q45 10 81 15t62 5q106 0 107 -98q0 -123 -154 -205q-61 -35 -125.5 -53.5t-138.5 -24.5q-92 248 -252 248q-31 0 -59.5 -11.5t-51 -29.5t-36 -44t-13.5 -54zM152 174q0 43 53 74q31 16 52.5 19t41.5 3q72 0 119 -141q-82 -20 -180 -20q-86 0 -86 65z" />
<glyph unicode="\" d="M-377 -92l92 -84q47 78 95 78q39 0 147 -123l143 -164q55 -61 78 -61q33 0 55 55l-294 285q-100 100 -160 100h-51q-18 0 -105 -86z" />
<glyph unicode="]" horiz-adv-x="512" d="M-203 477q14 -12 24.5 -20t18.5 -15.5t16.5 -15.5t20.5 -23q45 45 89 80t79 52q117 82 234 43q76 -27 117.5 -62t41.5 -113q0 -27 -7 -56.5t-16 -56t-20.5 -47t-19.5 -28.5q-14 -14 -39 -34.5t-80 -26.5q-51 -6 -90 25.5t-68 68.5q-16 29 -26 28q-16 0 -17 -14l21 -61 l41 -103q47 -59 139 -59q37 0 59.5 3t41 10t36 21.5t43.5 39.5q51 51 67.5 109.5t16.5 129.5q0 123 -78 226q-41 53 -105.5 82.5t-123.5 29.5q-45 0 -81 -2t-68.5 -11t-65.5 -28.5t-72 -52.5l-65 -53q-23 -23 -41.5 -39.5t-22.5 -26.5zM53 928h606l9 92h-611z" />
<glyph unicode="^" d="M-580 1444q0 -131 152 -227q141 -86 274 -87q137 1 250 64q135 76 135 199q-6 45 -57 88q-49 43 -92 49q25 -47 24 -96q0 -104 -92 -172t-198 -68q-115 0 -191 55q-82 63 -82 174q0 41 13 76q6 23 14 33h-111q-39 -45 -39 -88z" />
<glyph unicode="_" horiz-adv-x="968" d="M72 928h786q12 -25 12 -35q0 -78 -219 -78l-137 10q-45 6 -81 8.5t-58 2.5q-37 0 -73 -11.5t-75 -31.5q-84 -47 -84 -117q0 -117 176 -164q-217 -86 -217 -205q0 -123 111 -192q92 -59 223 -60q104 0 228 33l133 -186h69l-151 202q209 63 209 172q0 49 -52 99 q-49 51 -98 51q-37 0 -71.5 -13.5t-71.5 -37.5q-78 -53 -78 -119q0 -39 57 -96q-57 -10 -101 -15.5t-73 -5.5h-123q-49 0 -82 25q-35 29 -34 72q0 115 217 200q160 68 303 80l-39 102q-100 0 -303 -71q-117 0 -117 88q0 14 10.5 30.5t26.5 29t34.5 20.5t35.5 8l133 -6 l133 -4q100 0 186 22q127 37 127 105q0 41 -37 88h164l4 92h-999zM645 236q6 45 64 75q57 33 106 33q35 0 35 -37q0 -88 -180 -119q-20 31 -25 48z" />
<glyph unicode="`" d="M-1118 -156q47 -10 83 -7t65.5 15.5t55 30t52.5 35.5l653 551v-76l-559 -557q-57 -61 -112.5 -89t-102.5 -24.5t-82 35t-53 86.5z" />
<glyph unicode="a" horiz-adv-x="409" d="M27 1020h483l-4 -92h-215l-51 -733q0 -72 17 -119t62 -82q-51 8 -131 76q-78 68 -77 135l51 723h-80z" />
<glyph unicode="b" horiz-adv-x="610" d="M72 928h700l4 92h-700zM96 481q0 -117 90 -194q94 -78 213 -78q111 0 192 35.5t142 105.5l8 178q-59 -102 -170 -155q-45 53 -91 132t-97 183q59 35 129 35q127 0 178 -64l27 -28q27 6 26 35q-6 66 -86 118q-76 51 -145 52q-162 0 -283 -95q-133 -109 -133 -260zM170 432 q0 127 149 232q53 -113 98.5 -187t92.5 -131q-96 -43 -172 -43q-63 0 -113 31q-55 39 -55 98z" />
<glyph unicode="c" horiz-adv-x="864" d="M72 928h942l4 92h-942zM88 768q0 -139 57 -139q125 10 212 16t139 6q-193 -98 -193 -200q0 -86 92 -181q94 -92 180 -92q39 0 97.5 23.5t119 59.5t112.5 76t81 73l16 176q-10 -18 -42.5 -50t-74.5 -68t-82 -66.5t-61 -45.5q-113 -73 -204 -73h-2q-117 0 -117 96 q0 102 119 196q121 96 223 97h65l-28 102h-580q-33 2 -52.5 9.5t-30.5 14.5t-17 12t-13 3q-16 -4 -16 -45z" />
<glyph unicode="d" horiz-adv-x="968" d="M72 928h735q12 -23 12 -58q0 -96 -198 -96l-115 4l-111 6q-125 0 -209 -102t-84 -231q0 -143 101 -246q100 -98 243 -99q53 0 99.5 4.5t77.5 8.5q154 -217 243 -217q47 6 47 47q0 37 -36 37q-96 0 -183 139q86 31 148 80q71 65 71 141q0 82 -53 154q-50 69 -135 69h-2 q-74 0 -143 -45q-68 -43 -68 -114q0 -59 15.5 -107.5t39.5 -79.5q-39 -14 -80 -18t-92 -4q-219 0 -219 198q0 94 72 185q74 88 168 88l96 -6l98 -4q104 0 191 28q113 43 112 129q-6 57 -47 109h205l4 92h-999zM575 348q0 51 74 80q76 29 135 29q66 0 66 -68 q0 -117 -232 -160q-27 39 -35 62.5t-8 56.5z" />
<glyph unicode="e" horiz-adv-x="985" d="M82 928h133q-20 -41 -41 -97q-57 -145 -57 -268q0 -131 182 -221l236 -113q102 -51 174 -129q84 -96 84 -192q0 -102 -109 -162q-92 -49 -203 -49q-84 0 -178 63q-102 72 -100 154l8 14q-6 27 -37 27l-35 -4q-23 -10 -22 -25q0 -49 39 -98t116 -104q144 -99 250 -99 q143 0 262 64q143 76 144 209q0 104 -117 213q-86 82 -209 141l-235 113q-115 55 -115 178q0 193 127 385h391q12 -16 20.5 -58.5t13.5 -91.5t7 -97t2 -75q0 -84 -72 -143q-72 -55 -157 -55l-62 20q-14 -6 -14 -16q0 -45 67 -78q63 -29 111 -29q104 0 172 74q70 76 70 176 q0 27 -5 79t-14.5 109.5t-25 108.5t-33.5 76h237l5 92h-1006z" />
<glyph unicode="f" horiz-adv-x="974" d="M74 928l4 92h1405l-4 -92h-639l-19 -244q98 111 234 111q121 0 205 -97q45 -49 66.5 -100t21.5 -117q0 -121 -97 -205q-49 -45 -100 -66.5t-117 -21.5t-123 56q-57 57 -57 125q0 16 2 20t4 6q23 0 27 -16q14 -55 106 -55q49 0 96.5 16t84 46t58 72t21.5 95q0 55 -35.5 96 t-91.5 41q-127 0 -221 -88q-49 -45 -76.5 -98t-27.5 -115l-15 -215q0 -61 9.5 -97t38.5 -67q-184 57 -185 174l15 176q-113 -100 -213 -100q-133 0 -234 129q-100 131 -100 266q0 119 76 273h-119zM242 573q0 -35 10 -68.5t29.5 -60t46 -43t61.5 -16.5q170 0 287 156l29 387 h-359q-49 -72 -76.5 -161t-27.5 -194z" />
<glyph unicode="g" horiz-adv-x="880" d="M193 305q75 -86 192 -86q100 0 184 40t150 114q133 152 133 354q0 141 -94 242q-92 102 -230 102q-57 0 -119.5 -12t-117.5 -31q-156 -55 -156 -147l45 -93q57 92 165 136.5t224 44.5q84 0 151.5 -61.5t67.5 -149.5q0 -172 -126 -305q-63 -68 -136 -98.5t-161 -30.5 q-168 0 -168 137q0 27 14 52.5t36.5 43.5t50.5 29.5t56 11.5q63 0 118.5 -49t62.5 -109q0 -25 24 -24q37 0 37 45q0 51 -20.5 96t-57.5 84q-80 82 -174 82q-90 0 -160 -61q-69 -56 -69 -147q0 -120 78 -210z" />
<glyph unicode="h" horiz-adv-x="952" d="M72 928h698q6 -12 7 -21.5t3 -15.5q0 -86 -147 -86l-125 6q-72 8 -120 11t-73 3q-49 0 -100 -37q-49 -37 -49 -81q0 -113 151 -185q-233 -115 -233 -266q0 -176 233 -276q184 -78 388 -78q59 6 65 59q-41 -14 -67.5 -15t-49.5 -1q-70 0 -136 17.5t-138 49.5 q-170 80 -170 203q0 72 36 124t111 93q119 63 267 64q239 0 239 -126q0 -71 -74 -104q-57 -24 -129 -24h-6l-104 8q37 -104 86 -131q102 0 184 51q96 59 96 158q0 121 -106 190q-96 61 -217 62q-70 0 -128 -11.5t-108 -31.5q-75 50 -75 107q1 34 29 56q26 22 57 21l149 -12 q16 -2 36.5 -3t49.5 -6h62q180 0 180 99q0 57 -47 129h258l4 92h-983z" />
<glyph unicode="i" horiz-adv-x="434" d="M14 1020h240q-92 76 -92 188q0 143 102 228q93 75 238 75h4q43 0 94 -7t104.5 -23.5t102.5 -42t86 -62.5q29 -31 57.5 -70.5t59 -84.5t65.5 -92.5t74 -90.5l-57 -26q-80 86 -135.5 153.5t-112.5 120.5q-35 33 -77 59.5t-86 45t-86 27.5t-79 9q-109 0 -190 -57 q-90 -68 -90 -172q0 -150 96 -178h180l23 -92h-197l-53 -754q0 -66 15 -111t54 -77q-53 10 -125 69q-78 66 -77 129l55 744h-135z" />
<glyph unicode="j" horiz-adv-x="897" d="M72 928h1024l4 92h-1024zM121 573q0 -186 110 -321q123 -143 304 -143q125 0 215 71q98 76 98 199q0 156 -127 289q18 8 58 14t89.5 10t103.5 6t103 2l6 123l-229 -8q-104 0 -185 -18.5t-139 -42.5q-28 -66 -28 -97q0 -18 24 -18l29 4l33 6q37 0 68.5 -17.5t53 -45 t34 -63.5t12.5 -72q0 -59 -20.5 -102.5t-61.5 -78.5q-75 -69 -186 -69h-3q-68 0 -121 24.5t-87.5 67.5t-53 102.5t-18.5 126.5q0 205 92 309q-129 -31 -174 -137v-121z" />
<glyph unicode="k" horiz-adv-x="1036" d="M72 928h708l-22 -299q-111 186 -281 186q-145 0 -254 -84q-119 -92 -119 -229q0 -131 80 -231.5t211 -100.5q215 0 344 164l-10 -129q0 -51 57 -127q59 -72 111 -72q4 0 14 10l-18 33q-33 45 -33 119q0 29 2 37l17 196q55 113 161 193q119 86 236 86q160 0 160 -158 q0 -109 -82 -184q-78 -76 -191 -76q-100 0 -157 74q-16 29 -27 29q-16 0 -16 -15l20 -61l41 -103q47 -59 139 -59q74 0 136.5 26.5t115.5 73.5q102 102 103 244q0 123 -78 225q-84 109 -205 109q-98 0 -181 -46t-163 -138l22 307h736l4 92h-1577zM176 420q0 117 131 205 q117 77 239 77h3q109 0 158 -86q6 -8 18 -20q4 -4 8 -6q14 4 29 18l-14 -76q-18 -109 -144 -182q-115 -67 -226 -67h-3q-199 0 -199 137z" />
<glyph unicode="l" horiz-adv-x="749" d="M72 928h852l4 92h-852zM109 410q0 -182 114 -326q117 -141 299 -141q51 0 107 22q63 31 63 76q0 31 -5 59.5t-11 42.5q-66 -96 -215 -96q-123 0 -211 88q-80 88 -80 213q0 61 23.5 118.5t72.5 119.5q95 114 213 114h2q84 0 129 -88l-104 -84q-80 -66 -80 -118 q0 -35 51 -66t86 -31q119 0 119 201q76 67 215 104l8 134q-68 -23 -133 -51.5t-129 -63.5q-80 188 -182 188q-135 0 -248 -143q-104 -135 -104 -272z" />
<glyph unicode="m" horiz-adv-x="802" d="M147 84q76 -68 164 -68q135 0 221 177q39 78 60.5 150.5t21.5 152.5q80 22 114 22h3l207 6l2 92l-188 -6q-53 0 -127 -12v231q0 45 -99 99h406l4 92h-860l-4 -92h407q23 -74 23 -252v-96q-162 -31 -281 -107q-151 -101 -151 -235q0 -82 77 -154zM154 195q0 117 114 196 q94 68 224 86q-14 -131 -60 -233q-61 -145 -162 -146q-29 0 -50 9.5t-32 17.5q-34 29 -34 70z" />
<glyph unicode="n" horiz-adv-x="753" d="M72 928h827l4 92h-827zM88 461q0 -117 82 -193q81 -69 198 -69h3q90 0 159 51q82 55 82 139q0 109 -88 211h92q25 0 60 3t71.5 9t69 15.5t55.5 21.5l9 101q-18 -10 -51 -16.5t-76 -11.5t-91.5 -7t-97.5 -2l-164 -11q-121 -12 -206 -65q-106 -70 -107 -176zM141 410 q0 90 80 139q82 51 180 51q55 0 91 -47t36 -102q0 -137 -239 -138q-147 0 -148 97z" />
<glyph unicode="o" d="M-967 1380q-4 20 3.5 41t21.5 38.5t33.5 28.5t42.5 11h12q41 0 79 -12q44 -14 85 -39t80 -56.5t78 -64.5l395 -328h-96l-385 293q-20 -31 -60.5 -43t-69.5 -12t-62.5 7t-70.5 30q-74 49 -86 106zM-874 1335q2 -20 32 -43q27 -12 56 -8q35 6 77 62q-52 48 -95 48 q-6 0 -13 -1q-58 -7 -58 -47q0 -5 1 -11z" />
<glyph unicode="p" horiz-adv-x="579" d="M72 928h123q-76 -158 -76 -273q0 -72 29.5 -137t87.5 -127q117 -119 258 -119q115 0 211 78l8 148q-121 -133 -281 -133q-43 0 -81 16t-66.5 45t-45 66.5t-16.5 80.5q0 174 125 355h395l5 92h-672z" />
<glyph unicode="q" horiz-adv-x="684" d="M94 522q0 -160 107 -284q111 -129 268 -129q51 0 101.5 14t95.5 39.5t79.5 62.5t57.5 84l16 191q-45 -94 -139 -176q-121 -102 -231 -103q-111 0 -193 58q-88 68 -88 172q8 37 45 36l82 11q133 0 266 77q150 92 150 213q0 84 -68 162q-66 80 -143 80q-55 0 -102.5 -11 t-92.5 -32q-108 -55 -108 -145q0 -39 19.5 -74t52 -63.5t77.5 -50t96 -29.5q-109 -25 -137 -25h-112q-35 0 -67 -22.5t-32 -55.5zM291 778q0 76 90 123q74 35 160 35q43 0 74.5 -27.5t31.5 -68.5t-16.5 -76t-45 -62.5t-66.5 -46t-81 -24.5l-2 8q29 12 29 27q-6 10 -59.5 16 t-77.5 25q-37 37 -37 71z" />
<glyph unicode="r" horiz-adv-x="1114" d="M39 1020l67 -92h259q-98 -37 -162 -101l61 -170q61 127 178 197t258 74h23q90 -4 146.5 -57.5t56.5 -143.5q0 -137 -115 -252q-114 -110 -248 -110h-2q-119 0 -158 63l-28 45l-125 -86q117 -240 295 -387q207 -170 446 -170h74l-14 39q-18 -6 -50 -6q-164 0 -335 160 q-59 57 -121 136t-121 183q55 -31 178 -31q190 0 318 109q139 115 139 297q0 131 -117 203q-4 2 -7 4t-7 4h344l4 92h-1237z" />
<glyph unicode="s" horiz-adv-x="884" d="M0 1020l68 -92h137q-10 -10 -20.5 -18.5t-18.5 -18.5v-193q59 111 171 170.5t243 59.5h16q152 -10 152 -158q0 -131 -91 -227q-88 -94 -221 -94q-117 0 -196 90l-154 51l129 -307q262 -348 559 -349q43 0 84 23q-244 0 -467 297l-147 195q133 -72 223 -72q231 0 358 176 q45 -55 113 -55q39 0 78 39l8 88q-72 -53 -106 -54q-45 0 -78 13q22 58 22 110q0 63 -23.5 117.5t-66.5 97.5l-18 19h290l5 92h-1049z" />
<glyph unicode="t" horiz-adv-x="620" d="M72 928h706l4 92h-706zM104 410q0 -123 84 -269q89 -157 208 -157h1q57 0 58 57q-6 37 -47 37q-92 0 -150 104q-49 86 -49 187q0 53 12 95t37 85q55 90 150 90l135 -10q10 -2 26.5 -3t36.5 -5h78l68 18l8 111q-59 -16 -127 -17l-111 10q-39 6 -68.5 8.5t-45.5 2.5 q-131 0 -217.5 -104.5t-86.5 -239.5z" />
<glyph unicode="u" d="M-872 -102q0 -86 34.5 -156t102.5 -131q131 -119 299 -119q63 0 134.5 18.5t137.5 47.5q164 80 164 196q0 104 -66 176q-70 66 -176 66q-82 0 -153 -39q-88 -49 -88 -121q10 -55 49 -97t90 -42q47 0 111 41q59 41 59 88q0 35 -12.5 50t-30.5 15q0 -27 -14.5 -51 t-37 -42.5t-50 -29t-56.5 -10.5q-47 0 -47 37q0 63 96 105q43 18 75 25t71 7q53 0 94 -34q33 -33 33 -93q0 -121 -154 -178q-111 -41 -250 -41q-154 0 -260 84q-104 82 -104 238v86q-51 -12 -51 -96z" />
<glyph unicode="v" horiz-adv-x="598" d="M72 928h710l4 92h-710zM98 430q0 -55 19.5 -102t58.5 -92q80 -86 184 -86q227 0 375 169v170q-39 -82 -182 -149q-141 -68 -254 -68q-63 0 -105 38t-42 100q0 131 141 221q125 80 262 80q129 0 182 -127l6 41q-27 76 -81 125q-66 55 -138 55q-180 0 -299 -94 q-127 -102 -127 -281z" />
<glyph unicode="w" horiz-adv-x="1447" d="M72 928h1261q25 -25 25 -78q0 -76 -201 -76l-147 10q-47 6 -85 8.5t-65 2.5q-51 0 -94 -15.5t-90 -48.5q-98 -72 -98 -158q0 -147 116 -247q115 -96 269 -97q63 0 129 25q-25 -119 -158 -191q-131 -67 -304 -67h-5q-209 0 -209 86q0 61 63.5 104t122.5 43l-72 74h-141 q-59 0 -115 23q-66 31 -75 96q51 -39 129 -39q149 0 149 117q0 20 -11 39.5t-29.5 35t-39 25.5t-39.5 10h-112q-31 0 -61.5 -11t-54.5 -29.5t-39 -44t-15 -54.5q0 -82 106 -145q94 -53 205 -54q-86 -53 -86 -129q0 -82 127 -155q115 -66 207 -66h113q135 0 241.5 49 t157.5 142q123 -211 174 -211q41 0 100 53q-164 25 -293 305q104 12 172 55q88 57 89 146q0 29 -10.5 57.5t-29 51t-44 37t-56.5 14.5q-78 0 -155 -48q-86 -55 -86 -122q0 -53 24 -86q-41 -10 -121 -11h-22h-29q-80 0 -135 25q-74 37 -74 102q0 82 64 146q65 65 143 65h2 l144 -8h83h101q59 4 84 6q147 25 147 119q0 76 -37 119h168l4 92h-1478zM209 481q33 68 129 68q76 0 76 -57q-2 -29 -33 -50q-20 -12 -30.5 -14t-33.5 -2q-94 0 -108 55zM1092 410q0 61 63 94q66 35 125 35q55 0 55 -58q-6 -47 -96 -78q-70 -25 -137 -30z" />
<glyph unicode="x" horiz-adv-x="509" />
<glyph unicode="y" horiz-adv-x="624" d="M72 928h336q75 -56 75 -148q0 -65 -51 -107t-119 -42h-133q-35 0 -60.5 -23.5t-25.5 -54.5v-72q0 -137 94.5 -229t227.5 -92q178 0 334 174l16 217q-57 -123 -166 -201q-59 -43 -116.5 -60.5t-129.5 -17.5q-82 0 -135 49.5t-53 129.5q0 57 45 57h82q102 0 194 49 q109 59 109 150q0 127 -113 221h412l4 92h-823z" />
<glyph unicode="z" horiz-adv-x="1064" d="M72 928h776q0 -106 -111 -146q-43 -16 -91 -22t-109 -6h-123q-131 0 -224 -101q-90 -102 -90 -233q0 -166 125 -291t291 -125q80 0 149.5 20.5t137.5 59.5q149 91 149 231q0 205 -235 342q88 18 143 54q72 53 72 108q0 53 -37 109h219l4 92h-1042zM184 358q0 113 74 203 q78 90 186 90h164q104 0 170 -92q59 -84 60 -190q0 -123 -129 -199q-57 -33 -117 -47t-127 -14q-123 0 -199 63q-43 37 -62.5 81t-19.5 105z" />
<glyph unicode="{" horiz-adv-x="1017" d="M72 928h768q57 -14 57 -99q0 -90 -145 -131q-88 -27 -209 -26h-35q0 -57 29 -144l67 11q47 0 89 -16.5t73 -45t49.5 -67.5t18.5 -82q0 -53 -20.5 -94t-59.5 -74q-80 -61 -181 -62q-121 0 -200 84q-80 86 -80 207q0 147 61 209q18 14 19 27l-4 16q-109 0 -191 -100 l-18 -101q0 -166 137 -301t307 -135q70 0 128.5 18.5t105.5 49.5q111 76 110 204q0 104 -69.5 187.5t-192.5 109.5q117 31 184 82q88 63 88 144q-6 72 -47 129h209l4 92h-1048z" />
<glyph unicode="|" horiz-adv-x="462" d="M166 174q0 -80 121 -164l71 1010h-131z" />
<glyph unicode="}" horiz-adv-x="509" d="M-115 559l21 72q55 123 180 123q154 0 258 -238q86 -195 86 -373v-90q-25 -25 -42.5 -37t-33.5 -12t-16 37v215q0 131 -45 236q-55 150 -166 149q-31 0 -56.5 -10t-56.5 -37q-55 -43 -55 -102q0 -31 25 -64q23 -16 61 -22q57 0 99 39.5t49 97.5q43 -29 43 -103 q0 -61 -45.5 -100t-104.5 -39q-90 0 -147 82q-53 78 -54 176zM121 928l4 92h610l-8 -92h-606z" />
<glyph unicode="~" horiz-adv-x="536" d="M72 928h659l4 92h-659zM80 100l18 -47q25 -59 37 -59q14 0 109 82q199 165 430 276l18 121l-59 -31l-17 72q-78 301 -215 301q-186 0 -290 -151q6 -41 36 -103q172 141 265 141q109 0 180 -274q-352 -166 -512 -328z" />
<glyph unicode="&#xad;" d="M-512 1406q2 38 14.5 78t32 74.5t41.5 57.5q51 51 111.5 83t129 34t148.5 -28t170 -99q6 -23 27.5 -54.5t21.5 -72.5q0 -29 -20 -62l-133 78q31 27 28.5 60.5t-51.5 70.5q-186 98 -338 -53q-14 -14 -26.5 -38t-20.5 -52.5t-12 -60t0 -58.5q6 -49 41 -103.5t82 -105.5 t98 -96t90 -76l-88 -4q-84 70 -139 122t-92 94t-59.5 77t-41.5 69q-16 27 -14 65z" />
<glyph unicode="&#xc8;" horiz-adv-x="1130" d="M70 420q0 -150 176 -289q164 -127 321 -127q82 0 144.5 15.5t119.5 46.5q131 74 132 221q0 80 -62 176q-74 106 -139 106q-27 -4 -73 -12t-83 -16q-102 -23 -162 -23q-96 0 -96 76q0 57 45 104q29 27 49.5 35t53.5 8l133 -12q10 -2 24.5 -3t34.5 -5h74q47 0 79.5 15.5 t63.5 45.5q57 57 58 146h247l4 92h-1136l-6 -92h839q0 -102 -231 -103l-129 4l-127 7q-37 0 -65.5 -12.5t-53.5 -35.5q-51 -45 -51 -112q0 -94 74 -176q78 -84 168 -84q39 0 143 26q49 14 84 18.5t59 4.5q47 -6 77 -29.5t30 -66.5q0 -131 -123 -199q-88 -51 -240 -51 q-125 0 -227 65q-115 78 -115 195q0 39 21 74q8 14 8 28q0 16 -45 17q-31 -2 -64.5 -28t-33.5 -50zM930 625q6 -39 32.5 -63.5t65.5 -24.5q35 0 61.5 25.5t26.5 62.5q0 35 -25.5 61.5t-62.5 26.5q-43 -6 -70 -27q-29 -29 -28 -61z" />
<glyph unicode="&#xc9;" horiz-adv-x="860" d="M72 928h1001l19 92h-1016zM78 471q0 -70 33.5 -129t97.5 -109q119 -90 264 -90q109 0 211 80q102 84 102 187q0 43 -10 85t-16 58q14 -10 38.5 -16.5t49 -9.5t44 -5t26.5 -2q10 2 25 7t32.5 11.5t33 13.5t23.5 13l10 174q-6 -25 -34.5 -46t-66.5 -37.5t-76.5 -25.5 t-63.5 -9q-45 6 -76 20q-96 164 -242 164l-161 -10q-57 -72 -58 -162q106 59 260 59q76 0 131 -59q57 -57 58 -131q0 -109 -105 -185q-94 -66 -207 -65q-250 0 -249 260q-6 61 -17 66q-57 -8 -57 -107z" />
<glyph unicode="&#xca;" horiz-adv-x="1228" d="M72 928h811l-27 -19l-8 -186q-59 -16 -108.5 -37.5t-96.5 -48.5q-80 188 -182 188q-135 0 -248 -143q-104 -135 -104 -272q0 -182 114 -326q117 -141 299 -141q51 0 107 22q63 31 63 76q0 31 -5 59.5t-11 42.5q-66 -96 -215 -96q-123 0 -211 88q-80 88 -80 213 q0 61 23.5 118.5t72.5 119.5q96 115 215 114q84 0 129 -88l-104 -84q-80 -66 -80 -118q0 -35 51 -66t86 -31q119 0 119 201q39 35 100.5 68.5t130.5 52.5l58 8q27 2 65.5 -15.5t46.5 -37.5q18 -18 27.5 -69.5t2.5 -112t-31.5 -118t-73.5 -85.5q-23 -23 -54.5 -36 t-61.5 -20.5t-54.5 -8.5t-32.5 3l16 -110q18 -6 47 -5t61 5t60.5 11t46.5 17q55 33 83 55.5t46 69.5q45 88 50.5 160t-11 130.5t-47.5 104.5t-57 81q-29 29 -57.5 41t-63.5 24l8 201h332l4 92h-1247z" />
<glyph unicode="&#xcb;" horiz-adv-x="1335" d="M72 928h1026l-31 -439q-51 -141 -149 -229q-113 -100 -252 -100q-104 0 -167 64.5t-63 170.5q170 0 318 51q195 74 194 209q0 96 -98 150q-78 41 -184 41q-414 0 -539 -92q-37 -55 -49 -158q205 166 561 166q238 0 238 -76q-8 -92 -164 -141l-207 -31q-131 -25 -131 -104 q0 -141 96 -250q94 -104 236 -105q174 0 342 193l-2 -33q0 -150 174 -213q-47 53 -47 162l55 764h209l4 92h-1366z" />
<glyph unicode="&#xcc;" horiz-adv-x="858" d="M55 668l56 -164q55 123 162.5 192.5t234.5 69.5q84 0 136 -52t52 -143q0 -131 -102 -243q-100 -106 -221 -107q-106 0 -140 62l-26 43l-111 -84q104 -229 262 -375q182 -164 396 -164h65l-12 37q-18 -6 -45 -6q-141 0 -297 155q-111 117 -213 310q49 -31 158 -31 q168 0 280 106q123 106 123 287q0 129 -102 197q-43 29 -94.5 43t-116.5 14v113h456l5 92h-885l-4 -92h307v-113q-78 -4 -169 -41t-155 -106z" />
<glyph unicode="&#xcd;" horiz-adv-x="1460" d="M72 928l4 92h1491l-4 -92h-576l-8 -201q35 -12 63.5 -24.5t57.5 -40.5q37 -29 72.5 -68t54 -87t13.5 -104.5t-50 -119.5q-16 -29 -41 -50.5t-72 -42.5q-12 -6 -34.5 -30.5t-44 -56t-38 -65.5t-16.5 -61q0 -25 5 -49t19.5 -43.5t40 -31t68.5 -7.5q47 4 77 10.5t83 22.5 q37 10 55.5 38t27.5 59.5t12 62.5t5 49l-6 31q88 -45 88 -92q0 -18 -3 -48t-15 -62t-39 -59.5t-72 -37.5q-66 -14 -102.5 -20.5t-89.5 -6.5q-27 0 -46.5 8.5t-36 19.5t-32.5 24.5t-35 23.5q-66 33 -84 98.5t0.5 138t66.5 136t118 92.5q53 37 71.5 74.5t16.5 71.5t-18.5 62.5 t-35.5 47.5q-8 20 -47 36.5t-65 16.5l-58 -8q-70 -18 -131 -52t-100 -69q0 -201 -119 -201q-35 0 -86 31t-51 66q0 53 80 118l104 84q-45 88 -129 88q-119 0 -215 -114q-49 -61 -72.5 -118.5t-23.5 -119.5q0 -125 80 -213q88 -88 211 -88q150 0 215 96q6 -14 11 -42.5 t5 -59.5q0 -45 -63 -76q-61 -23 -107 -22q-182 0 -299 141q-115 145 -114 326q0 137 104 272q113 143 248 143q102 0 182 -188q47 27 96 48.5t109 37.5l8 186l27 19h-811z" />
<glyph unicode="&#xd2;" horiz-adv-x="952" d="M72 928h698q6 -12 7 -21.5t3 -15.5q0 -86 -147 -86l-125 6q-72 8 -120 11t-73 3q-49 0 -100 -37q-49 -37 -49 -81q0 -113 151 -185q-233 -115 -233 -266q0 -176 233 -276q184 -78 388 -78q59 6 65 59q-41 -14 -67.5 -15t-49.5 -1q-70 0 -136 17.5t-138 49.5 q-170 80 -170 203q0 72 36 124t111 93q115 59 258 64q-88 -61 -135 -91t-68.5 -40.5t-25.5 -9.5t-4 -1q16 -35 33.5 -53t55.5 -9t106.5 52t189.5 133q29 -14 47 -24.5t29.5 -21.5t15.5 -25.5t4 -36.5q0 -70 -74 -103q-59 -25 -135 -24l-104 8q37 -104 86 -131q102 0 184 51 q96 59 96 158q0 121 -106 190q-96 61 -217 62q-70 0 -128 -11.5t-108 -31.5q-76 51 -75 108q2 33 28.5 54.5t57.5 21.5l149 -12q16 -2 36.5 -3t49.5 -6h62q180 0 180 99q0 57 -47 129h258l4 92h-983z" />
<glyph unicode="&#xd3;" horiz-adv-x="1402" d="M72 928h784l12 -37q-6 -45 -80 -64q-27 -8 -52 -10t-58 -2l-164 10q-51 6 -93 8.5t-71 2.5q-117 0 -117 -88q0 -68 127 -177l-94 -43q-178 -111 -178 -272q0 -154 135 -266q119 -100 281 -127l45 22q-141 31 -238 103q-119 94 -118 217q0 152 174 258q152 96 311 96 q72 0 129 -39q61 -49 61 -114q-94 -12 -211 -84q-129 -86 -129 -158q0 -37 12.5 -70t32.5 -57q47 -53 115 -53q115 0 195 114q39 55 58.5 108.5t19.5 115.5l196 53l-14 -170q0 -76 53 -133q59 -53 127 -74q-29 39 -38 75t-9 91l53 764h176l4 92h-1433zM356 666q0 57 56 57 h286q37 0 75 6t69 14q96 35 96 86l-43 99h301l-33 -461l-202 -43q0 80 -119 137q-98 49 -185 49h-133q-76 0 -112 -12q-55 20 -56 68zM612 133q0 57 95 96q63 31 141 43q0 -66 -53.5 -125t-116.5 -59q-66 0 -66 45z" />
<glyph unicode="&#xd4;" horiz-adv-x="1183" d="M-45 928h682q-6 -8 -10 -21l-111 -16l-92 2l-84 6q-100 0 -164 -74q-68 -72 -67 -163q0 -100 77 -179q78 -66 195 -65q18 0 47 3t57.5 6t53 7t36.5 4q10 -12 29 -25.5t27 -23.5q-14 -6 -40 -13t-55.5 -16.5t-56 -19.5t-41.5 -18q-129 -86 -129 -158q0 -37 12.5 -70 t32.5 -57q47 -53 115 -53q115 0 195 114q33 47 52 92.5t23 96.5q4 4 4 16q0 4 -1 6t-1 6v7l197 53l-14 -170q0 -76 53 -133q59 -53 127 -74q-29 39 -38 75t-9 91l53 764h176l4 92h-1331zM166 625q0 72 57 129q55 63 131 63l74 -4l78 -2q43 0 80 4t71 14q29 10 46.5 22.5 t27.5 29.5q2 0 3 -1t3 -1q14 23 21 49h219l-33 -461l-227 -53q-18 16 -36.5 23t-35.5 24q43 18 70.5 59t27.5 68q0 31 -11 56.5t-30 51.5q-20 27 -47.5 38t-60.5 11q-55 0 -110.5 -30.5t-55.5 -83.5q0 -41 19.5 -77t39.5 -58q-31 -12 -69.5 -13.5t-77.5 -1.5 q-174 0 -174 144zM393 133q0 57 94 96q33 16 78 35t84 25q0 -33 -23.5 -73t-50.5 -69q-53 -59 -116 -59q-66 0 -66 45zM477 588q0 35 60 55q53 23 106 23q51 0 51 -50q0 -20 -4 -36.5t-18.5 -28.5t-41 -22.5t-71.5 -18.5q-10 2 -24.5 11t-26.5 19.5t-21.5 22.5t-9.5 25z" />
<glyph unicode="&#xd5;" horiz-adv-x="1026" d="M72 928h749q35 0 35 -37t-55 -51q-51 -14 -103 -15l-176 4l-172 7q-61 0 -131 -54q-68 -53 -67 -116q0 -137 141 -207q117 -55 262 -56l201 21q27 4 48 10l42 12q10 -10 10 -26q0 -37 -55 -51q-51 -14 -103 -15l-176 4l-172 7q-61 0 -131 -54q-68 -53 -67 -116 q0 -137 141 -207q117 -55 262 -56l201 21q215 43 215 139q-2 16 -9.5 34.5t-17.5 39.5q-135 -150 -491 -150q-229 0 -230 127q0 55 39 86t88 31l348 -8q231 0 232 86q-6 47 -39 129q49 20 64.5 41.5t15.5 54.5q-2 16 -9.5 34.5t-17.5 39.5q-135 -150 -491 -150 q-229 0 -230 127q0 55 39 86t88 31l348 -8q231 0 232 86q-6 47 -35 119h209l4 92h-1032z" />
<glyph unicode="&#xd6;" horiz-adv-x="1026" d="M72 928h749q35 0 35 -37t-55 -51q-51 -14 -103 -15l-176 4l-172 7q-61 0 -131 -54q-68 -53 -67 -116q0 -137 141 -207q117 -55 262 -56l88 13q0 -43 -23.5 -78t-64.5 -35q-162 0 -289 -45q-178 -68 -178 -197q0 -104 129 -174q106 -57 225 -57q66 0 127.5 11.5 t137.5 35.5q182 61 182 154q0 74 -64 131q-51 53 -141 84q72 35 72 178q215 43 215 139q-2 16 -9.5 34.5t-17.5 39.5q-135 -150 -491 -150q-229 0 -230 127q0 55 39 86t88 31l174 -4l174 -4q231 0 232 86q-6 47 -35 119h209l4 92h-1032zM182 20q0 104 176 164q72 27 132 37 t126 10q29 0 56.5 -12t50 -31.5t37 -45t14.5 -50.5q0 -104 -172 -149q-61 -16 -119.5 -22.5t-132.5 -6.5q-168 0 -168 106z" />
<glyph unicode="&#xd7;" horiz-adv-x="1105" d="M72 928h848q35 -10 34 -47q0 -41 -57 -56q-29 -8 -49.5 -9t-40.5 -1l-338 21q-45 0 -82 -31q-37 -37 -37 -78q0 -72 92 -129q82 -51 160 -51l137 10q51 6 87 8t53 2q55 0 55 -55q0 -59 -125 -86q-80 -20 -166 -20q-170 0 -301 106q-68 57 -105.5 127t-37.5 149 q-53 -37 -62 -92q41 -137 143.5 -229t258.5 -129q-115 -37 -115 -102q0 -31 16.5 -53.5t46.5 -41.5q57 -35 115 -35l129 19q29 4 48.5 7t29.5 5t20 2h29q45 0 45 -37q-6 -63 -102 -94q-72 -23 -148 -22q-160 0 -311 100q-174 117 -174 264l-62 -114q0 -123 195 -234 q180 -100 311 -100q49 0 104.5 10t110.5 27q150 49 150 122q0 51 -45 105q-47 55 -94 55l-131 -16q-78 -14 -136 -15l-41 9q-25 14 -24 24q0 39 53 64q51 27 94 26q375 0 375 168q0 51 -55 111q-53 59 -105 59l-178 -12q-12 0 -34.5 -1t-57.5 -3q-33 -2 -55.5 -3t-32.5 -1 l-45 8q-20 14 -21 25q0 70 76 69l137 -6l140 -4q78 0 145 31q84 43 84 106l-10 68h168l4 92h-1112z" />
<glyph unicode="&#xd8;" horiz-adv-x="1024" d="M68 102q0 -111 182 -170q127 -41 274 -41q117 0 215 27q150 43 150 123q0 20 -12.5 38.5t-31 32t-41 20.5t-44.5 7q-41 0 -77 -8t-95 -29q-119 -45 -119 -102l25 -47h-93q-66 0 -133 22q-86 31 -86 86q8 53 58 93q31 23 54 28.5t56 5.5l133 -10q10 -2 24.5 -3t35.5 -5h73 q63 0 119 12q82 20 82 64q0 45 -37 73q221 74 221 183q0 68 -81 112q-82 47 -150 48l-160 -17q-53 -8 -92 -11t-65 -3q-78 0 -78 45q12 78 108 78l90 -6l95 -7q272 0 272 99q0 45 -37 88h225l5 92h-1055l-6 -92h782q12 -25 12 -35q0 -68 -116 -68l-181 13l-178 8 q-47 -6 -84 -29q-35 -29 -35 -59q0 -45 23.5 -80t73.5 -70q92 -61 176 -61q72 0 151.5 15.5t165.5 15.5q55 0 56 -46q-6 -61 -109 -98q-86 -29 -162 -28q-393 0 -465 274q-20 -6 -45 -25q-20 -20 -18 -39q33 -125 192 -217q150 -86 285 -86h109q-10 -61 -140 -61l-147 4 l-150 6q-68 0 -135 -49q-66 -47 -65 -111zM530 -20q6 33 99 55q88 20 141 20q66 0 66 -22q0 -29 -82 -53q-80 -25 -179 -25q-45 0 -45 25z" />
<glyph unicode="&#xd9;" horiz-adv-x="649" d="M72 928h846l4 92h-846zM96 123q0 -76 84 -143q86 -68 168 -68q80 0 152 43q80 49 80 127q0 53 -48 100q-47 49 -102 49q-20 -2 -24 -26l18 -29q33 -45 33 -74q0 -53 -47 -88q-31 -23 -53.5 -25.5t-49.5 -2.5q-43 0 -76 26q-31 31 -30 70q0 100 207 168l366 127l8 108 q-88 147 -186 236q-125 115 -248 115q-86 0 -149 -50q-70 -57 -70 -131q0 -70 66 -131q66 -59 133 -59q53 6 96 29q53 29 53 79q0 35 -20 78q-27 51 -47 51q-16 -4 -17 -38q-10 -104 -106 -105q-66 0 -66 55q10 59 60.5 94t107.5 35q168 0 336 -284l-375 -125 q-254 -88 -254 -211z" />
<glyph unicode="&#xda;" horiz-adv-x="1554" d="M72 928h708l-30 -426l-50 -25l-16 72q-78 301 -215 301q-186 0 -291 -152q6 -41 37 -102q172 141 264 141q109 0 180 -274q-352 -166 -512 -328l19 -47q25 -59 37 -59q14 0 108 82q199 165 430 276l2 10l-14 -192q0 -55 57 -125q57 -74 111 -74q4 0 14 10l-18 33 q-33 45 -33 119q0 31 2 37l17 196q55 113 161 193q119 86 236 86q160 0 160 -158q0 -109 -82 -184q-76 -76 -191 -76q-100 0 -157 74q-16 29 -27 29q-16 0 -16 -15l20 -61l41 -103q47 -59 139 -59q74 0 136.5 26.5t115.5 73.5q102 102 103 244q0 123 -78 225 q-84 109 -205 109q-98 0 -181 -46t-163 -138l22 307h736l4 92h-1577zM721 178l14 -35l15 -28z" />
<glyph unicode="&#xdb;" horiz-adv-x="1452" d="M72 928h628l-10 -99q-12 -125 -112 -223q-102 -98 -222 -98q-29 0 -50 9t-32 18q-35 29 -34 69q0 39 15 72t41 57.5t60.5 37.5t71.5 13q133 0 176 -90l33 25q-74 137 -219 137q-115 0 -191 -55q-80 -66 -80 -176q0 -102 117 -164q-147 -86 -147 -205q0 -72 75.5 -145.5 t143.5 -73.5q195 0 313 211l-8 -115q0 -76 117 -127h47q-33 33 -33 86l29 416q53 84 137 147q119 86 236 86q160 0 159 -157q0 -109 -82 -185q-78 -76 -190 -75q-100 0 -158 73q-16 29 -26 29q-16 0 -17 -14l21 -62l41 -102q47 -59 139 -60q74 0 136.5 27t115.5 74 q102 102 102 243q0 123 -78 226q-84 109 -204 108q-90 0 -167 -39t-151 -116l14 217h689l4 92h-1446zM219 205q0 78 68 143q70 66 151 66q59 0 103 -49l24 16q-6 33 -55 72q74 27 162 102l-8 -100q-33 -104 -125 -215q-109 -121 -203 -121q-43 0 -80 24.5t-37 61.5z" />
<glyph unicode="&#xdc;" d="M-479 -104h139v-140h-139v140z" />
<glyph unicode="&#xde;" horiz-adv-x="1224" d="M113 393v588h206v-391h201v391h610v-197h-403v-194h403v-586h-204v389h-199v-389h-612v195h403v194h-405z" />
<glyph unicode="&#xdf;" horiz-adv-x="1228" d="M129 424v168h397v399h170v-399h400v-168h-400v-401h-170v401h-397z" />
<glyph unicode="&#xe0;" horiz-adv-x="1236" d="M121 428v168h969v-168h-969z" />
<glyph unicode="&#xe1;" horiz-adv-x="1208" d="M96 104l363 449l-324 403l166 107l191 -250q29 -37 50 -66.5t38 -52.5q27 33 49 61.5t45 55.5l209 252l159 -109l-337 -393l364 -465l-160 -96l-325 418l-326 -418z" />
<glyph unicode="&#xe2;" horiz-adv-x="1226" d="M121 416h966v166h-966v-166zM502 16h213v207h-213v-207zM502 762h213v215h-213v-215z" />
<glyph unicode="&#xe3;" horiz-adv-x="1228" d="M115 225v168h966v-168h-966zM115 670v168h966v-168h-966z" />
<glyph unicode="&#xe4;" horiz-adv-x="1228" d="M113 641v168l970 410v-179l-770 -315l770 -319v-181z" />
<glyph unicode="&#xe5;" horiz-adv-x="1228" d="M113 225v181l768 319l-768 315v179l970 -410v-168z" />
<glyph unicode="&#xe6;" horiz-adv-x="1026" d="M53 690l355 801h145l354 -801h-182l-246 596l-239 -596h-187z" />
<glyph unicode="&#xe7;" horiz-adv-x="1208" d="M215 1157q0 -61 44.5 -99t105.5 -38l286 39l-127 135q-106 113 -170 113q-61 0 -100 -43t-39 -107zM348 799q0 -72 51 -117q51 -43 119 -43q51 0 84 70q27 49 35 110l29 207l-177 -88q-141 -74 -141 -139zM532 1393q6 -63 72 -183l78 -135l98 156q61 100 62 182 q0 27 -14.5 49.5t-38 38t-52 23.5t-55.5 8q-29 0 -55.5 -11.5t-48 -31t-34 -45t-12.5 -51.5zM698 1036l39 -237q12 -59 52.5 -99.5t97.5 -40.5t93 46.5t36 103.5q0 84 -101 129zM713 1059l297 -49q59 0 99 44t40 103q0 33 -12.5 59.5t-32.5 47.5q-43 43 -105 43 q-59 -6 -149 -103z" />
<glyph unicode="&#xe8;" horiz-adv-x="817" d="M57 449q76 -2 125 -43q49 -39 64 -109q8 -39 12 -100.5t4 -147.5q2 -92 5 -154.5t9 -101.5q14 -80 56.5 -131t105.5 -76q31 -14 142 -14h57v156h-33q-94 0 -127 27.5t-41 94.5q-2 18 -3 75t-1 155q0 213 -49 309q-49 94 -160 141q96 47 137 103q43 57 62 166 q4 35 7 116.5t3 212.5q0 127 35 168q33 37 137 37h33v158h-57q-66 0 -123 -10q-82 -23 -128 -80.5t-59 -181.5q-4 -27 -5 -81.5t-3 -140.5q0 -86 -4 -143t-12 -92q-14 -70 -63.5 -109t-125.5 -41v-163z" />
<glyph unicode="&#xe9;" horiz-adv-x="817" d="M47 -272v-156h55q43 0 74 3t51 7q80 23 125 81t62 181q2 27 3 81.5t1 135.5q2 168 18 236q16 70 64.5 110t126.5 42v163q-80 2 -127 41t-64 109q-14 70 -18 250q0 180 -12 258q-12 80 -54.5 131t-105.5 74q-59 16 -144 16h-55v-158h31q94 0 127 -26.5t41 -92.5 q2 -20 3 -77.5t1 -155.5q0 -215 47 -305t162 -146q-88 -37 -136.5 -103.5t-64.5 -176.5q-4 -35 -6 -114t-2 -202q0 -127 -35 -167q-33 -39 -137 -39h-31z" />
<glyph unicode="&#xea;" horiz-adv-x="817" d="M139 -408v1874h398v-149h-218v-1575h218v-150h-398z" />
<glyph unicode="&#xeb;" horiz-adv-x="817" d="M164 -258h217v1575h-217v149h397v-1874h-397v150z" />
<glyph unicode="&#xec;" horiz-adv-x="1228" d="M29 434q0 -143 51 -264q29 -70 81 -128t124.5 -100t161 -65.5t186.5 -23.5h20q147 0 254 41q109 45 183 112q80 74 108 137h-113q-53 -80 -162.5 -137t-271.5 -57q-160 0 -276 51q-129 57 -192.5 171t-63.5 273q0 150 67.5 285t184 205t264.5 70q129 0 231 -58 q106 -57 157.5 -149t51.5 -201q0 -94 -40 -182t-111 -140q-51 -39 -86 -38q-18 0 -30.5 13t-12.5 30q0 4 4 28.5t14 71.5l90 436h-110l-23 -102q-35 61 -83 89.5t-103 28.5q-70 0 -146 -51q-74 -53 -123 -155q-51 -109 -51 -205v-8q0 -61 18.5 -113.5t49 -90.5t68.5 -58.5 t77 -20.5h10q51 0 100.5 29t88.5 78q6 -41 12 -56q25 -51 109 -51q133 0 243 129q127 145 127 334q0 133 -59 246q-72 129 -191.5 194.5t-275.5 65.5q-205 0 -339 -89t-210 -274q-63 -147 -63 -301zM379 412q0 57 19.5 122.5t52 112.5t67.5 68.5t74 21.5q59 0 101 -49 t42 -137q0 -66 -22.5 -132.5t-57.5 -107.5q-35 -43 -72.5 -65.5t-72.5 -22.5q-53 0 -92 50.5t-39 138.5z" />
<glyph unicode="&#xed;" horiz-adv-x="1536" d="M94 1389q6 57 41 96t125 57q61 0 102 -37q77 -51 91 -139q-6 -88 -66 -147l-158 -160l211 -209q27 -35 27 -68q0 -23 -14 -39q-16 -29 -54 -49l-49 33q25 6 37 27q4 16 4 22q0 10 -6 23q-31 45 -65.5 78.5t-86.5 89.5l-94 92l113 119q-29 16 -56.5 36.5t-56.5 47.5 q-45 51 -45 127zM115 -43l1102 1546h157l-1102 -1546h-157zM160 1380q0 -27 12 -53q35 -49 127 -113q43 37 63 70q27 29 27 78v10q-12 53 -78 101q-23 6 -43 6q-49 0 -90 -35q-18 -31 -18 -64zM938 641q29 25 109 51q78 23 118 23q51 0 97.5 -17.5t81 -49.5t54 -75t19.5 -92 q0 -135 -106 -229q-37 -31 -111 -68l164 -247l-53 -37l-166 270q-4 -2 -23.5 -4t-29.5 -2q-47 0 -74 18q-37 20 -37 62q0 27 19.5 43t48.5 16q43 0 81 -33q8 -4 15.5 -13t17.5 -19q53 0 125 86q55 70 55 157q0 74 -51 125t-125 51q-51 0 -114 -32q-12 -4 -28.5 -13.5 t-39.5 -21.5z" />
<glyph unicode="&#xee;" horiz-adv-x="1536" d="M94 1389q6 57 41 96t125 57q61 0 102 -37q77 -51 91 -139q-6 -88 -66 -147l-158 -160l211 -209q27 -35 27 -68q0 -23 -14 -39q-16 -29 -54 -49l-49 33q25 6 37 27q4 16 4 22q0 10 -6 23q-31 45 -65.5 78.5t-86.5 89.5l-94 92l113 119q-29 16 -56.5 36.5t-56.5 47.5 q-45 51 -45 127zM115 -43l1102 1546h157l-1102 -1546h-157zM160 1380q0 -27 12 -53q35 -49 127 -113q43 37 63 70q27 29 27 78v10q-12 53 -78 101q-23 6 -43 6q-49 0 -90 -35q-18 -31 -18 -64zM872 586q0 45 27 87t59 60l60 -33q-10 -16 -19 -24q-41 -59 -41 -98 q0 -78 105 -158q16 -12 43 -27.5t61 -36.5q33 20 58.5 36t44.5 30q102 84 102 160q0 18 -22 80h-2v2q-4 8 -10.5 18t-16.5 23l65 30q12 -14 21.5 -25.5t13.5 -21.5q35 -59 35 -106q0 -90 -117 -185q-20 -16 -48.5 -35.5t-67.5 -42.5q27 -18 47 -33.5t35 -27.5 q82 -80 81 -168q0 -94 -65 -147q-59 -47 -152 -47q-92 0 -155.5 52t-63.5 146q0 78 78 156q12 14 31.5 29.5t46.5 33.5q-39 27 -67.5 47.5t-49.5 36.5q-117 100 -117 189zM1030 98q0 -66 37 -104.5t100 -38.5q59 0 100.5 37.5t41.5 105.5q0 70 -68 129q-55 49 -78 49 q-25 -16 -41 -28t-26 -23q-66 -66 -66 -127z" />
<glyph unicode="&#xef;" horiz-adv-x="1536" d="M94 1403q23 10 39.5 17t30.5 12q96 29 131 28q88 0 142.5 -45t54.5 -121t-48 -116q-8 -4 -18 -11.5t-27 -15.5q63 -16 103.5 -65.5t40.5 -112.5q0 -106 -86 -164q-66 -43 -113 -43l109 -150l-54 -43l-131 191q-23 4 -39 7t-26 7q-68 25 -68 76q0 61 68 61q39 0 80 -49 q6 -8 12 -18t16 -25l4 -6q23 4 42.5 9t33.5 14q78 43 78 129q0 84 -70 121q-45 27 -129 26q-23 0 -38 -2t-25 -4l-39 64h106q59 0 104.5 32.5t45.5 85.5t-40 83t-97 30q-25 0 -101 -29q-10 -4 -24.5 -11t-30.5 -17zM115 -43l1102 1546h157l-1102 -1546h-157zM872 586 q0 45 27 87t59 60l60 -33q-10 -16 -19 -24q-41 -59 -41 -98q0 -78 105 -158q16 -12 43 -27.5t61 -36.5q33 20 58.5 36t44.5 30q102 84 102 160q0 18 -22 80h-2v2q-4 8 -10.5 18t-16.5 23l65 30q12 -14 21.5 -25.5t13.5 -21.5q35 -59 35 -106q0 -90 -117 -185 q-20 -16 -48.5 -35.5t-67.5 -42.5q27 -18 47 -33.5t35 -27.5q82 -80 81 -168q0 -94 -65 -147q-59 -47 -152 -47q-92 0 -155.5 52t-63.5 146q0 78 78 156q12 14 31.5 29.5t46.5 33.5q-39 27 -67.5 47.5t-49.5 36.5q-117 100 -117 189zM1030 98q0 -66 37 -104.5t100 -38.5 q59 0 100.5 37.5t41.5 105.5q0 70 -68 129q-55 49 -78 49q-25 -16 -41 -28t-26 -23q-66 -66 -66 -127z" />
<glyph unicode="&#xf0;" horiz-adv-x="1024" d="M117 92l51 -123q106 66 231 66q47 0 166 -33q117 -31 162 -31q70 0 178 45l-43 117q-86 -39 -139 -39q-35 0 -178 31q-41 8 -76 12t-66 4t-106 -16q92 92 121 199h211v106h-209q-2 16 -7 42t-16 63h232v106h-258q-10 47 -15.5 82t-5.5 55q0 68 53.5 121t141.5 53 q78 0 133 -52t65 -132l136 18q-20 135 -115 203q-94 70 -215 70q-145 0 -244 -80q-98 -78 -98 -217q0 -49 16 -121h-94v-106h127q16 -43 22.5 -69t8.5 -36h-158v-106h158q-25 -152 -170 -232z" />
<glyph unicode="&#xf1;" horiz-adv-x="1024" d="M145 295q4 -49 17.5 -88t38.5 -72q47 -63 112.5 -93t169.5 -40v-121h82v123q145 6 236 88q94 84 94 211q0 176 -188 248q-20 8 -54.5 17.5t-87.5 19.5v350q133 -25 158 -158l145 19q-10 55 -36.5 100t-73.5 78q-70 51 -193 63v60h-82v-60q-139 -12 -209 -67 q-104 -80 -104 -209q0 -154 137 -219q45 -20 89 -34.5t87 -23.5v-385q-82 6 -139 72q-23 25 -36 60.5t-23 82.5zM309 776q0 59 47 105.5t127 58.5v-336q-96 25 -135 68t-39 104zM565 102v371q113 -35 148 -74q20 -18 30.5 -45.5t10.5 -58.5q0 -78 -53.5 -130.5t-135.5 -62.5 z" />
<glyph unicode="&#xf2;" horiz-adv-x="1024" d="M123 283h121l-62 -312h107l63 312h223l-61 -312h109l61 312h219v108h-198l53 264h145v109h-123l62 311h-107l-63 -311h-226l64 311h-107l-63 -311h-217v-109h196l-55 -264h-141v-108zM373 391l53 264h225l-53 -264h-225z" />
<glyph unicode="&#xf3;" horiz-adv-x="819" d="M94 -268l426 1515h144l-424 -1515h-146z" />
<glyph unicode="&#xf4;" horiz-adv-x="819" d="M102 1247h146l424 -1515h-144z" />
<glyph unicode="&#xf5;" horiz-adv-x="1126" d="M39 805q0 -98 70 -168q72 -72 167 -72q100 0 168 72q70 70 70 168q0 100 -70 170q-68 72 -168 72q-109 0 -172 -70q-66 -72 -65 -172zM84 -113l831 1149h119l-831 -1149h-119zM109 805q0 39 12 73.5t34.5 61.5t53.5 42t67 15q72 0 121 -57q47 -55 47 -133t-47 -133 q-51 -57 -121 -58q-76 0 -120 56q-47 55 -47 133zM582 106q0 -100 69 -169q68 -70 168 -70t168 70q70 69 70 169t-70 170q-68 72 -168 72q-109 0 -174 -72q-63 -70 -63 -170zM651 106q0 78 47 134.5t121 56.5q72 0 121 -55q47 -59 47 -133q0 -76 -47 -134q-49 -57 -121 -57 q-76 0 -123 55q-45 57 -45 133z" />
<glyph unicode="&#xf6;" horiz-adv-x="1234" d="M-25 -223l1299 2v-168l-1299 -2v168z" />
<glyph unicode="&#x2000;" horiz-adv-x="866" />
<glyph unicode="&#x2001;" horiz-adv-x="1733" />
<glyph unicode="&#x2002;" horiz-adv-x="866" />
<glyph unicode="&#x2003;" horiz-adv-x="1733" />
<glyph unicode="&#x2004;" horiz-adv-x="577" />
<glyph unicode="&#x2005;" horiz-adv-x="433" />
<glyph unicode="&#x2006;" horiz-adv-x="288" />
<glyph unicode="&#x2007;" horiz-adv-x="288" />
<glyph unicode="&#x2008;" horiz-adv-x="216" />
<glyph unicode="&#x2009;" horiz-adv-x="346" />
<glyph unicode="&#x200a;" horiz-adv-x="96" />
<glyph unicode="&#x2010;" d="M-512 1406q2 38 14.5 78t32 74.5t41.5 57.5q51 51 111.5 83t129 34t148.5 -28t170 -99q6 -23 27.5 -54.5t21.5 -72.5q0 -29 -20 -62l-133 78q31 27 28.5 60.5t-51.5 70.5q-186 98 -338 -53q-14 -14 -26.5 -38t-20.5 -52.5t-12 -60t0 -58.5q6 -49 41 -103.5t82 -105.5 t98 -96t90 -76l-88 -4q-84 70 -139 122t-92 94t-59.5 77t-41.5 69q-16 27 -14 65z" />
<glyph unicode="&#x2011;" d="M-512 1406q2 38 14.5 78t32 74.5t41.5 57.5q51 51 111.5 83t129 34t148.5 -28t170 -99q6 -23 27.5 -54.5t21.5 -72.5q0 -29 -20 -62l-133 78q31 27 28.5 60.5t-51.5 70.5q-186 98 -338 -53q-14 -14 -26.5 -38t-20.5 -52.5t-12 -60t0 -58.5q6 -49 41 -103.5t82 -105.5 t98 -96t90 -76l-88 -4q-84 70 -139 122t-92 94t-59.5 77t-41.5 69q-16 27 -14 65z" />
<glyph unicode="&#x2012;" d="M-512 1406q2 38 14.5 78t32 74.5t41.5 57.5q51 51 111.5 83t129 34t148.5 -28t170 -99q6 -23 27.5 -54.5t21.5 -72.5q0 -29 -20 -62l-133 78q31 27 28.5 60.5t-51.5 70.5q-186 98 -338 -53q-14 -14 -26.5 -38t-20.5 -52.5t-12 -60t0 -58.5q6 -49 41 -103.5t82 -105.5 t98 -96t90 -76l-88 -4q-84 70 -139 122t-92 94t-59.5 77t-41.5 69q-16 27 -14 65z" />
<glyph unicode="&#x2013;" horiz-adv-x="328" d="M-512 1406q3 38 21.5 78t47 74.5t61.5 57.5q75 51 164 83t189.5 34t218.5 -28t250 -99q9 -23 40.5 -54.5t31.5 -72.5q0 -29 -29 -62l-196 78q46 27 42 60.5t-76 70.5q-273 98 -497 -53q-21 -14 -39 -38t-30 -52.5t-18 -60t0 -58.5q9 -49 60.5 -103.5t120.5 -105.5 t144 -96t133 -76l-130 -4q-123 70 -204 122t-135.5 94t-87.5 77t-61 69q-24 27 -21 65z" />
<glyph unicode="&#x2014;" horiz-adv-x="1352" d="M-511 1406q6 38 42.5 78t94 74.5t122.5 57.5q150 51 327.5 83t379 34t437 -28t500.5 -99q18 -23 81 -54.5t63 -72.5q0 -29 -59 -62l-391 78q91 27 83.5 60.5t-151.5 70.5q-547 98 -994 -53q-41 -14 -78 -38t-60.5 -52.5t-35 -60t-0.5 -58.5q18 -49 121 -103.5 t241.5 -105.5t288.5 -96t264 -76l-259 -4q-247 70 -408.5 122t-270.5 94t-175 77t-122 69q-47 27 -41 65z" />
<glyph unicode="&#x2018;" horiz-adv-x="454" d="M102 1128l9 123q0 1 16 60q10 35 25.5 64.5t31.5 56.5q14 23 34 49t42 55q25 0 35 -25q-29 -37 -54.5 -76.5t-47.5 -84.5l-33 -107q-12 -55 -13 -119l37 15l33 4q41 0 78 -37q31 -37 31 -82q0 -37 -19.5 -62.5t-48.5 -33.5l-43 -6q-59 0 -86 60t-27 146z" />
<glyph unicode="&#x2019;" horiz-adv-x="454" d="M133 1442q0 37 19.5 62.5t48.5 33.5l43 6q57 0 86 -61q27 -53 26 -146l-8 -125q-2 -14 -4 -21t-12 -36q-10 -35 -25.5 -64.5t-32.5 -56.5q-14 -23 -33.5 -49.5t-41.5 -54.5q-27 0 -35 24q29 37 54.5 77t47.5 85l33 107q12 55 12 118l-37 -14l-32 -4q-41 0 -78 37 q-31 37 -31 82z" />
<glyph unicode="&#x201c;" horiz-adv-x="737" d="M102 1128l9 123q0 1 16 60q10 35 25.5 64.5t31.5 56.5q14 23 34 49t42 55q25 0 35 -25q-29 -37 -54.5 -76.5t-47.5 -84.5l-33 -107q-12 -55 -13 -119l37 15l33 4q41 0 78 -37q31 -37 31 -82q0 -37 -19.5 -62.5t-48.5 -33.5l-43 -6q-59 0 -86 60t-27 146zM446 1128l9 123 q0 1 16 60q10 35 25.5 64.5t31.5 56.5q14 23 34 49t42 55q25 0 35 -25q-29 -37 -54.5 -76.5t-47.5 -84.5l-33 -107q-12 -55 -12 -119l36 15l33 4q41 0 78 -37q31 -37 31 -82q0 -37 -19.5 -62.5t-48.5 -33.5l-43 -6q-59 0 -86 60t-27 146z" />
<glyph unicode="&#x201d;" horiz-adv-x="811" d="M133 1442q0 37 19.5 62.5t48.5 33.5l43 6q57 0 86 -61q27 -53 26 -146l-6 -96l-2 -29q-2 -14 -4 -21t-12 -36q-10 -35 -25.5 -64.5t-32.5 -56.5q-14 -23 -33.5 -49.5t-41.5 -54.5q-27 0 -35 24q29 37 54.5 77t47.5 85l33 107q12 55 12 118l-37 -14l-32 -4q-41 0 -78 37 q-31 37 -31 82zM489 1442q0 37 19.5 62.5t48.5 33.5l43 6q57 0 86 -61q27 -53 27 -146l-8 -125q-2 -14 -4.5 -21t-12.5 -36q-10 -35 -25.5 -64.5t-31.5 -56.5q-14 -23 -33.5 -49.5t-42.5 -54.5q-27 0 -35 24q29 37 54.5 77t48.5 85l32 107q12 55 13 118l-37 -14l-33 -4 q-41 0 -78 37q-31 37 -31 82z" />
<glyph unicode="&#x202f;" horiz-adv-x="346" />
<glyph unicode="&#x205f;" horiz-adv-x="433" />
<glyph unicode="&#x25fc;" horiz-adv-x="1024" d="M0 0z" />
</font>
</defs>
</svg>
